<?xml version="1.0" encoding="UTF-8" standalone="no" ?>
<!DOCTYPE svg PUBLIC "-//W3C//DTD SVG 1.1//EN" "http://www.w3.org/Graphics/SVG/1.1/DTD/svg11.dtd">
<svg xmlns="http://www.w3.org/2000/svg" xmlns:xlink="http://www.w3.org/1999/xlink" version="1.1" width="1080" height="1080" viewBox="0 0 1080 1080" xml:space="preserve">
<desc>Created with Fabric.js 5.2.4</desc>
<defs>
</defs>
<g transform="matrix(1 0 0 1 540 540)" id="e5266d6f-c247-4a41-b20b-6ad37336eb32"  >
<rect style="stroke: none; stroke-width: 1; stroke-dasharray: none; stroke-linecap: butt; stroke-dashoffset: 0; stroke-linejoin: miter; stroke-miterlimit: 4; fill: rgb(255,255,255); fill-rule: nonzero; opacity: 1; visibility: hidden;" vector-effect="non-scaling-stroke"  x="-540" y="-540" rx="0" ry="0" width="1080" height="1080" />
</g>
<g transform="matrix(1 0 0 1 540 540)" id="60b20786-fe73-413a-a193-29325186099e"  >
</g>
<g transform="matrix(2.11 0 0 2.11 540 540)"  >
<g style=""   >
		<g transform="matrix(1 0 0 1 -51.17 -21.89)"  >
<path style="stroke: none; stroke-width: 1; stroke-dasharray: none; stroke-linecap: butt; stroke-dashoffset: 0; stroke-linejoin: miter; stroke-miterlimit: 4; fill: rgb(249,216,122); fill-rule: evenodd; opacity: 1;" vector-effect="non-scaling-stroke"  transform=" translate(-204.83, -234.11)" d="M 300.26 94.594 C 305.303 94.201 312.401 94.65899999999999 316.447 96.78699999999999 C 328.897 103.34599999999999 333.585 126.279 337.564 141.216 C 342.529 159.87900000000002 346.009 177.00400000000002 350.452 193.875 C 355.09499999999997 211.494 360.447 227.797 366.086 243.793 C 368.75600000000003 251.363 371.66900000000004 259.456 374.039 268.749 C 376.205 277.237 378.505 288.31800000000004 375.95599999999996 297.273 C 373.388 306.31800000000004 365.02799999999996 312.059 355.111 315.651 C 345.349 319.182 334.01 322.01 324.397 324.151 C 302.46299999999997 329.034 280.342 333.053 259.95 337.863 C 217.79199999999997 347.806 176.706 358.8 134.337 368.856 C 123.57999999999998 371.407 112.46099999999998 374.63 100.32799999999999 373.518 C 87.99399999999999 372.388 80.77799999999999 367.22099999999995 76.192 358.433 C 71.731 349.88 69.16799999999999 339.8 66.595 328.813 C 59.259 297.51 52.57 265.339 44.652 233.64499999999998 C 40.886 218.563 36.463 203.04999999999998 33.681 185.92399999999998 C 32.702999999999996 179.89899999999997 31.47 170.385 34.503 165.07799999999997 C 36.52 161.545 42.188 158.08799999999997 46.573 156.02999999999997 C 51.074 153.91399999999996 56.903999999999996 152.07699999999997 61.929 150.54299999999998 C 72.919 147.194 85.882 145.72899999999998 96.76 143.41099999999997 C 108.119 140.99499999999998 119.95400000000001 138.70699999999997 131.595 136.28199999999998 C 143.147 133.87499999999997 154.522 130.855 165.328 128.05399999999997 C 187.291 122.35699999999997 210.072 117.02499999999998 232.246 111.04899999999998 C 248.211 106.74799999999998 265.399 101.94199999999998 282.161 97.88499999999998 C 288.096 96.44999999999997 293.933 95.08699999999997 300.26 94.59399999999998 z" stroke-linecap="round" />
</g>
		<g transform="matrix(1 0 0 1 -117.87 66.34)"  >
<path style="stroke: none; stroke-width: 1; stroke-dasharray: none; stroke-linecap: butt; stroke-dashoffset: 0; stroke-linejoin: miter; stroke-miterlimit: 4; fill: rgb(196,118,91); fill-rule: evenodd; opacity: 1;" vector-effect="non-scaling-stroke"  transform=" translate(-138.13, -322.34)" d="M 115.698 340.279 C 128.319 325.088 141.591 310.215 155.214 295.516 C 156.414 312.536 159.359 330.41 160.57 347.427 C 142.515 351.5 128.053 348.08500000000004 115.698 340.279 z" stroke-linecap="round" />
</g>
		<g transform="matrix(1 0 0 1 -139.28 50.59)"  >
<path style="stroke: none; stroke-width: 1; stroke-dasharray: none; stroke-linecap: butt; stroke-dashoffset: 0; stroke-linejoin: miter; stroke-miterlimit: 4; fill: rgb(124,117,209); fill-rule: evenodd; opacity: 1;" vector-effect="non-scaling-stroke"  transform=" translate(-116.72, -306.59)" d="M 87.495 279.059 C 107.852 281.53000000000003 127.13300000000001 286.24600000000004 147.241 289.226 C 145.026 293.515 141.32500000000002 296.815 138.17000000000002 300.479 C 128.75500000000002 311.397 118.25500000000002 323.014 108.66500000000002 334.116 C 94.75100000000002 324.91999999999996 82.03200000000002 296.46799999999996 87.49500000000002 279.05899999999997 z" stroke-linecap="round" />
</g>
		<g transform="matrix(1 0 0 1 -105.26 29.22)"  >
<path style="stroke: none; stroke-width: 1; stroke-dasharray: none; stroke-linecap: butt; stroke-dashoffset: 0; stroke-linejoin: miter; stroke-miterlimit: 4; fill: rgb(105,175,122); fill-rule: evenodd; opacity: 1;" vector-effect="non-scaling-stroke"  transform=" translate(-150.74, -285.22)" d="M 167.5 345.498 C 165.161 328.255 163.95 310.48 161.584 291.971 C 161.233 289.246 160.82 285.081 160.275 284.287 C 158.957 282.347 146.08100000000002 280.70599999999996 143.248 280.21 C 128.172 277.56399999999996 114.15299999999999 275.417 99.17699999999999 272.782 C 95.75399999999999 272.18 92.01899999999999 271.09499999999997 89.94 271.897 C 89.462 271.974 89.582 271.565 89.80199999999999 271.49 C 91.16399999999999 262.512 96.589 251.872 102.952 244.83100000000002 C 127.025 218.211 171.345 220.568 191.892 238.63000000000002 C 209.874 254.43600000000004 215.17 282.406 209.954 301.529 C 207.286 311.336 202.303 319.319 195.45100000000002 326.843 C 188.681 334.288 180.14300000000003 341.26500000000004 167.50000000000003 345.49800000000005 z" stroke-linecap="round" />
</g>
		<g transform="matrix(1 0 0 1 -151.96 -26.03)"  >
<path style="stroke: none; stroke-width: 1; stroke-dasharray: none; stroke-linecap: butt; stroke-dashoffset: 0; stroke-linejoin: miter; stroke-miterlimit: 4; fill: rgb(165,154,232); fill-rule: evenodd; opacity: 1;" vector-effect="non-scaling-stroke"  transform=" translate(-104.04, -229.97)" d="M 71.062 220.412 C 73.75699999999999 216.431 84.92 213.143 96.41499999999999 209.839 C 109.267 206.147 119.13799999999999 200.845 124.512 204.032 C 127.751 205.95000000000002 130.75 213.714 133.074 219.82000000000002 C 135.03400000000002 224.97100000000003 139.27200000000002 233.859 137.73000000000002 238.104 C 135.84600000000003 243.299 117.84700000000002 247.875 111.01700000000002 250.11800000000002 C 106.69800000000002 251.54000000000002 101.46600000000002 253.60000000000002 95.81200000000003 255.116 C 86.84100000000002 257.522 81.54500000000003 258.98 77.31300000000003 249.066 C 75.24000000000004 244.204 67.16700000000003 226.18 71.06200000000003 220.412 z" stroke-linecap="round" />
</g>
		<g transform="matrix(1 0 0 1 -153.38 -26.34)"  >
<path style="stroke: none; stroke-width: 1; stroke-dasharray: none; stroke-linecap: butt; stroke-dashoffset: 0; stroke-linejoin: miter; stroke-miterlimit: 4; fill: rgb(255,255,255); fill-rule: nonzero; opacity: 1;" vector-effect="non-scaling-stroke"  transform=" translate(-102.62, -229.66)" d="M 95.959 247.506 C 100.867 236.244 105.774 224.985 110.691 213.727 C 111.726 211.345 108.12700000000001 209.405 107.07000000000001 211.802 C 102.158 223.067 97.25300000000001 234.328 92.334 245.58599999999998 C 91.294 247.96999999999997 94.902 249.91299999999998 95.959 247.50599999999997 M 90.574 226.911 C 87.461 226.371 85.453 223.488 86.095 220.472 C 86.741 217.458 89.792 215.442 92.898 215.98000000000002 C 96.006 216.51500000000001 98.01899999999999 219.40200000000002 97.377 222.41700000000003 C 96.737 225.43000000000004 93.684 227.44600000000003 90.574 226.91100000000003 z M 92.231 219.118 C 90.90899999999999 218.893 89.61 219.751 89.33399999999999 221.031 C 89.06099999999999 222.316 89.91799999999999 223.544 91.24 223.77 C 92.56599999999999 223.99800000000002 93.859 223.14000000000001 94.14099999999999 221.858 C 94.40599999999999 220.57500000000002 93.55999999999999 219.346 92.231 219.118 z M 111.348 244.398 C 107.78399999999999 243.783 105.494 240.482 106.227 237.039 C 106.962 233.58999999999997 110.45 231.285 114.007 231.896 C 117.56400000000001 232.509 119.863 235.81199999999998 119.128 239.26 C 118.402 242.703 114.907 245.01 111.348 244.398 z M 113.341 235.035 C 111.57 234.732 109.83099999999999 235.877 109.469 237.59199999999998 C 109.10199999999999 239.307 110.244 240.95 112.021 241.255 C 113.785 241.56199999999998 115.527 240.414 115.891 238.69899999999998 C 116.256 236.98299999999998 115.105 235.33999999999997 113.34100000000001 235.035 z" stroke-linecap="round" />
</g>
		<g transform="matrix(1 0 0 1 -126.35 -74.21)"  >
<path style="stroke: none; stroke-width: 1; stroke-dasharray: none; stroke-linecap: butt; stroke-dashoffset: 0; stroke-linejoin: miter; stroke-miterlimit: 4; fill: rgb(255,255,255); fill-rule: evenodd; opacity: 1;" vector-effect="non-scaling-stroke"  transform=" translate(-129.65, -181.79)" d="M 131.758 175.978 C 134.608 174.78300000000002 136.15 170.38500000000002 139.425 171.17100000000002 C 142.815 171.98300000000003 141.58700000000002 177.10500000000002 142.786 180.19000000000003 C 145.803 178.71900000000002 148.169 175.65000000000003 151.719 176.54700000000003 C 155.547 177.51200000000003 158.846 185.247 158.939 188.78000000000003 C 157.011 187.23300000000003 156.19299999999998 186.19100000000003 154.769 184.31500000000003 C 153.916 183.18400000000003 152.583 180.05700000000002 150.966 179.63300000000004 C 147.467 178.71300000000005 145.499 184.32000000000005 142.262 183.61900000000003 C 139.141 182.94200000000004 139.185 178.29200000000003 138.47 175.09700000000004 C 135.371 175.33600000000004 133.949 181.61200000000002 130.75 181.37100000000004 C 127.875 181.15700000000004 128.057 178.29200000000003 127.871 175.41600000000003 C 124.437 179.33900000000003 122.941 191.63000000000002 117.31 190.81500000000003 C 113.851 190.31500000000003 113.898 186.53500000000003 113.533 183.479 C 111.465 187.716 109.594 200.864 103.598 197.54000000000002 C 100.063 195.574 99.846 187.08200000000002 100.983 180.41200000000003 C 101.66300000000001 176.41000000000003 103.016 169.92800000000003 106.297 170.05900000000003 C 110.107 170.211 109.943 174.21500000000003 110.5 176.89800000000002 C 112.964 174.51000000000002 112.017 166.88600000000002 115.143 165.51100000000002 C 119.36 165.58 118.44 169.85200000000003 118.551 173.06100000000004 C 118.666 176.32300000000004 118.9 179.28000000000003 119.051 181.15100000000004 C 121.506 178.75300000000004 124.45400000000001 167.05600000000004 128.237 166.33500000000004 C 132.987 165.43300000000005 132.40699999999998 171.90700000000004 131.75799999999998 175.97800000000004 z M 105.83700000000002 190.93800000000002 C 107.22100000000002 188.572 107.80100000000002 184.95700000000002 109.13000000000002 182.50600000000003 C 107.56600000000003 181.04300000000003 107.77200000000002 178.52400000000003 106.84400000000002 176.68000000000004 C 106.06100000000002 181.69600000000003 105.24400000000003 186.73800000000003 105.83700000000002 190.93800000000005 z" stroke-linecap="round" />
</g>
		<g transform="matrix(1 0 0 1 -182.81 -69.08)"  >
<path style="stroke: none; stroke-width: 1; stroke-dasharray: none; stroke-linecap: butt; stroke-dashoffset: 0; stroke-linejoin: miter; stroke-miterlimit: 4; fill: rgb(255,255,255); fill-rule: nonzero; opacity: 1;" vector-effect="non-scaling-stroke"  transform=" translate(-73.19, -186.92)" d="M 61.337 185.347 L 60.213 190.18 C 60.08133603489414 190.69393662940286 60.20819303174886 191.2397948246924 60.553000000000004 191.643 C 60.92 192.07 61.522000000000006 192.325 62.12200000000001 192.313 C 62.96000000000001 192.291 63.59 191.79 63.77700000000001 190.998 L 65.412 183.98 L 68.95800000000001 182.59799999999998 C 69.31300000000002 183.46599999999998 69.66400000000002 184.332 70.01100000000001 185.20399999999998 L 70.48200000000001 186.38299999999998 C 70.77500000000002 187.105 71.47100000000002 187.546 72.28400000000002 187.52299999999997 C 72.91900000000003 187.50999999999996 73.51700000000002 187.21299999999997 73.83500000000002 186.75099999999998 C 74.13100000000003 186.32799999999997 74.17900000000002 185.80799999999996 73.96800000000002 185.289 L 72.09300000000002 180.617 C 72.19700000000002 180.29899999999998 72.20000000000002 179.981 72.09700000000002 179.667 C 71.96237631406454 179.2678696080542 71.68967418503917 178.9299175547887 71.32800000000002 178.714 L 68.18900000000002 170.913 C 67.89800000000002 170.18800000000002 67.20700000000002 169.75 66.39400000000002 169.768 C 65.77000000000002 169.783 65.19900000000003 170.06 64.86800000000002 170.507 C 64.62682142073365 170.8374665802746 64.53340843114103 171.25311817737668 64.61000000000003 171.655 C 64.52048088887196 171.80439921831174 64.455331297133 171.96710441633337 64.41700000000003 172.137 L 62.24600000000003 181.443 L 60.97700000000003 181.93300000000002 C 60.022000000000034 182.31000000000003 59.52900000000003 183.22000000000003 59.80600000000003 184.10200000000003 C 60.00400000000003 184.74600000000004 60.646000000000036 185.25300000000004 61.33700000000003 185.34700000000004 z M 66.385 179.829 L 66.92 177.52100000000002 L 67.649 179.336 L 66.385 179.829 z M 87.661 190.977 C 87.452 189.90800000000002 86.419 189.28300000000002 85.355 189.637 C 76.45347428051682 192.6108368003114 67.82760630072494 196.35362032327305 59.57499999999989 200.82300000000006 C 58.849000000000004 201.216 58.522000000000006 201.93 58.749 202.69 C 58.985132671297244 203.50801009859143 59.7366115031844 204.06906525692804 60.588 204.063 C 60.888 204.054 61.179 203.97299999999998 61.463 203.82299999999998 C 69.4646847269893 199.48816743262847 77.82901049147347 195.85909801741153 86.46099999999996 192.97700000000006 C 87.486 192.63299999999998 87.80199999999999 191.72499999999997 87.661 190.97699999999998 z" stroke-linecap="round" />
</g>
		<g transform="matrix(1 0 0 1 35.68 4.81)"  >
<path style="stroke: none; stroke-width: 1; stroke-dasharray: none; stroke-linecap: butt; stroke-dashoffset: 0; stroke-linejoin: miter; stroke-miterlimit: 4; fill: rgb(255,255,255); fill-rule: evenodd; opacity: 1;" vector-effect="non-scaling-stroke"  transform=" translate(-291.68, -260.81)" d="M 233.331 314.863 C 231.545 313.69 228.119 299.223 224.271 285.659 C 220.62099999999998 272.76 216.482 260.73 217.082 259.673 C 217.87099999999998 258.277 223.838 256.627 225.489 257.71 C 227.266 258.882 241.767 310.483 241.356 311.539 C 240.48 313.78499999999997 235.013 315.96999999999997 233.331 314.863 z M 248.218 310.38 C 246.254 308.562 241.18699999999998 288.2 235.795 269.041 C 230.665 250.819 225.13299999999998 233.753 225.63799999999998 232.353 C 226.30199999999996 230.51000000000002 232.26999999999998 228.858 234.07999999999998 230.53 C 236.03699999999998 232.338 256.43199999999996 305.213 256.123 306.631 C 255.46099999999998 309.64799999999997 250.06199999999998 312.089 248.218 310.38 z M 263.852 306.692 C 262.21 306.028 260.084 296.28700000000003 257.48499999999996 287.206 C 255.01399999999995 278.572 251.99699999999996 270.579 252.67499999999995 269.795 C 253.55699999999996 268.75800000000004 259.52899999999994 267.10900000000004 261.044 267.719 C 262.68399999999997 268.38 272.459 302.937 271.96799999999996 303.704 C 270.92299999999994 305.338 265.39399999999995 307.318 263.852 306.692 z M 278.213 302.22 C 276.32500000000005 300.68300000000005 271.959 282.853 267.23400000000004 266.101 C 262.742 250.171 257.81000000000006 235.27 258.35600000000005 234.019 C 259.071 232.368 265.03900000000004 230.716 266.78000000000003 232.13500000000002 C 268.66200000000003 233.669 286.519 297.391 286.16600000000005 298.653 C 285.41300000000007 301.339 279.98500000000007 303.671 278.2130000000001 302.22 z M 293.722 298.095 C 291.92699999999996 296.865 288.359 281.90900000000005 284.38899999999995 267.87800000000004 C 280.60799999999995 254.53700000000003 276.35599999999994 242.09100000000004 276.94899999999996 241.00600000000003 C 277.72399999999993 239.57400000000004 283.68899999999996 237.91900000000004 285.3539999999999 239.05400000000003 C 287.15099999999995 240.27800000000002 302.1409999999999 293.64500000000004 301.74099999999993 294.732 C 300.87999999999994 297.045 295.4119999999999 299.252 293.7219999999999 298.095 z M 309.32 294.268 C 307.763 293.91799999999995 306.45 287.08399999999995 304.61 280.76099999999997 C 302.86400000000003 274.74899999999997 300.54 269.24299999999994 301.26 268.62699999999995 C 302.209 267.81499999999994 308.174 266.16099999999994 309.611 266.484 C 311.168 266.828 318.03499999999997 290.895 317.496 291.486 C 316.344 292.741 310.779 294.596 309.32 294.268 z M 324.753 289.691 C 323.056 288.81699999999995 320.394 277.128 317.282 266.19899999999996 C 314.325 255.80599999999995 310.844 246.14999999999995 311.486 245.25299999999996 C 312.335 244.07099999999997 318.304 242.41799999999995 319.873 243.22399999999996 C 321.572 244.09699999999995 333.296 285.67699999999996 332.836 286.563 C 331.86 288.449 326.353 290.513 324.753 289.691 z M 340.836 284.741 C 338.89 282.99 333.987 263.20599999999996 328.741 244.593 C 323.756 226.893 318.36199999999997 210.31799999999998 318.873 208.95399999999998 C 319.553 207.15599999999998 325.52 205.504 327.313 207.11799999999997 C 329.255 208.86599999999996 349.07599999999996 279.65299999999996 348.75399999999996 281.037 C 348.06899999999996 283.977 342.662 286.39099999999996 340.83599999999996 284.741 z M 358.329 280.154 C 356.521 278.863 352.797 263.365 348.685 248.817 C 344.76800000000003 234.983 340.387 222.067 340.971 220.95000000000002 C 341.738 219.477 347.705 217.82700000000003 349.38 219.01100000000002 C 351.193 220.29800000000003 366.733 275.63300000000004 366.335 276.75300000000004 C 365.5 279.13300000000004 360.039 281.36300000000006 358.32899999999995 280.15400000000005 z" stroke-linecap="round" />
</g>
		<g transform="matrix(1 0 0 1 -30.74 -68.91)"  >
<path style="stroke: none; stroke-width: 1; stroke-dasharray: none; stroke-linecap: butt; stroke-dashoffset: 0; stroke-linejoin: miter; stroke-miterlimit: 4; fill: rgb(255,255,255); fill-rule: evenodd; opacity: 1;" vector-effect="non-scaling-stroke"  transform=" translate(-225.26, -187.09)" d="M 163.742 148.445 C 165.602 150.412 167.858 152.851 168.694 155.70499999999998 C 168.86599999999999 156.291 168.307 156.85099999999997 167.73399999999998 156.64 C 166.58399999999997 156.21599999999998 166.00599999999997 154.64 165.13899999999998 153.64999999999998 C 165.64299999999997 158.96299999999997 167.296 164.62599999999998 168.831 170.54299999999998 C 172.435 184.42399999999998 176.13799999999998 199.21999999999997 180.399 213.62499999999997 C 182.223 219.76799999999997 184.229 226.48599999999996 190.159 225.88299999999998 C 191.194 222.356 191.40099999999998 219.34099999999998 192.587 215.91699999999997 C 193.50199999999998 213.27999999999997 195.11499999999998 208.76699999999997 198.417 207.19199999999998 C 200.26500000000001 206.30999999999997 202.056 206.558 203.98 206.61299999999997 C 205.602 206.66199999999998 207.64999999999998 207.10499999999996 209.03199999999998 206.55999999999997 C 213.891 204.65299999999996 213.74599999999998 196.426 213.83999999999997 191.801 C 214.06199999999998 179.89999999999998 213.94699999999997 170.46099999999998 217.04599999999996 159.971 C 218.38799999999998 155.415 220.14999999999998 149.191 226.53199999999995 146.90800000000002 C 234.47699999999995 148.45700000000002 237.15199999999996 160.638 243.54299999999995 165.32700000000003 C 246.45799999999994 162.21900000000002 246.84399999999994 157.979 247.60899999999995 154.07300000000004 C 249.51499999999996 144.34100000000004 250.02799999999996 133.99300000000005 252.66799999999995 124.09000000000003 C 253.11499999999995 122.41800000000003 253.31899999999996 119.83900000000003 255.66899999999995 119.04900000000004 C 257.71099999999996 122.36000000000004 256.29099999999994 126.88400000000003 255.51799999999994 131.01600000000005 C 254.10999999999996 138.54100000000005 253.28699999999995 146.68200000000004 251.83899999999994 154.66400000000004 C 251.10999999999993 158.69000000000005 250.60199999999995 162.91500000000005 248.82199999999995 165.82600000000005 C 248.29299999999995 166.69300000000004 246.48199999999994 168.73400000000004 245.13799999999995 169.20600000000005 C 236.25199999999995 172.31400000000005 232.69299999999996 152.46400000000006 225.91399999999996 150.69100000000003 C 222.46599999999995 154.08300000000003 221.29299999999995 158.58000000000004 220.28699999999995 162.55700000000002 C 218.18999999999994 170.836 217.76099999999994 179.77800000000002 217.74799999999996 188.979 C 217.73899999999998 193.449 218.07399999999996 198.28900000000002 216.68999999999997 202.26500000000001 C 215.68399999999997 205.16400000000002 213.31099999999998 208.834 209.23699999999997 209.69600000000003 C 206.05099999999996 210.37500000000003 202.98099999999997 208.31900000000002 199.55999999999997 209.96200000000002 C 196.34999999999997 211.50500000000002 196.00099999999998 214.733 195.05899999999997 217.52200000000002 C 194.11099999999996 220.31900000000002 193.09099999999998 222.99500000000003 192.99999999999997 225.73200000000003 C 220.37899999999996 223.05300000000003 252.04799999999997 211.72100000000003 282.13199999999995 203.58400000000003 C 281.20699999999994 202.38600000000002 277.23599999999993 202.65300000000002 275.56899999999996 201.23400000000004 C 275.02099999999996 200.76700000000002 275.241 199.85400000000004 275.95099999999996 199.73100000000005 C 278.36299999999994 199.31200000000004 280.23099999999994 200.24800000000005 282.78099999999995 200.75700000000006 C 285.12899999999996 201.22800000000007 288.5369999999999 201.06400000000005 289.59899999999993 203.22600000000006 C 290.8669999999999 205.81500000000005 287.85299999999995 208.87200000000004 286.06699999999995 211.37400000000005 C 284.41799999999995 213.67800000000005 282.94399999999996 216.11200000000005 280.42799999999994 217.62700000000007 C 279.77599999999995 218.02000000000007 278.98799999999994 217.40300000000008 279.1449999999999 216.65800000000007 C 279.5759999999999 214.61700000000008 281.38699999999994 212.87700000000007 282.37499999999994 211.21400000000008 C 283.70599999999996 208.95200000000008 285.12999999999994 206.8420000000001 285.73799999999994 204.42100000000008 C 269.8469999999999 210.86900000000009 251.66499999999994 215.60500000000008 235.77199999999993 219.5480000000001 C 220.89799999999994 223.23600000000008 206.41699999999994 226.9670000000001 192.66799999999995 228.4370000000001 C 190.79699999999994 237.0330000000001 190.80599999999995 246.3010000000001 189.50199999999995 255.1020000000001 C 187.88899999999995 255.3760000000001 188.14499999999995 253.1910000000001 188.05799999999996 252.4540000000001 C 187.63999999999996 249.26100000000008 188.37599999999998 245.53500000000008 188.57399999999996 242.27300000000008 C 188.85399999999996 237.68400000000008 189.01799999999994 232.86900000000009 189.94699999999995 228.86300000000008 C 179.42299999999994 229.1850000000001 177.52799999999993 214.7980000000001 174.74199999999993 204.2640000000001 C 170.34499999999994 187.6700000000001 166.48599999999993 167.9400000000001 163.20499999999993 152.4810000000001 C 162.60299999999992 153.85300000000012 162.74999999999991 155.3500000000001 162.50499999999994 156.9390000000001 C 162.29399999999993 158.3130000000001 162.05799999999994 161.1030000000001 160.94599999999994 161.09000000000012 C 160.21099999999993 160.9810000000001 160.66699999999994 152.28200000000012 162.53299999999993 148.6180000000001 C 162.64305348033838 148.40120559291245 162.85184893454962 148.2516422216664 163.0925261368046 148.21720288668698 C 163.33320333905954 148.18276355170758 163.5755641178404 148.2677694140143 163.74199999999993 148.4450000000001 z" stroke-linecap="round" />
</g>
		<g transform="matrix(1 0 0 1 186.89 200.94)"  >
<path style="stroke: none; stroke-width: 1; stroke-dasharray: none; stroke-linecap: butt; stroke-dashoffset: 0; stroke-linejoin: miter; stroke-miterlimit: 4; fill: rgb(219,145,113); fill-rule: evenodd; opacity: 1;" vector-effect="non-scaling-stroke"  transform=" translate(-442.89, -456.94)" d="M 449.482 445.186 L 456.149 454.19899999999996 L 435.823 468.69999999999993 L 429.638 459.98599999999993 z" stroke-linecap="round" />
</g>
		<g transform="matrix(1 0 0 1 197.13 225.09)"  >
<path style="stroke: none; stroke-width: 1; stroke-dasharray: none; stroke-linecap: butt; stroke-dashoffset: 0; stroke-linejoin: miter; stroke-miterlimit: 4; fill: rgb(124,117,209); fill-rule: evenodd; opacity: 1;" vector-effect="non-scaling-stroke"  transform=" translate(-453.13, -481.09)" d="M 434.83 509.49 L 432.589 496.99 C 433.0354107591762 496.3463350541313 433.4958543262081 495.7125166465082 433.96999999999997 495.089 L 442.895 485.064 L 434.561 466.915 C 440.666 462.356 455.469 452.495 456.277 452.69800000000004 C 456.277 452.69800000000004 461.512 459.023 466.95799999999997 465.63100000000003 L 473.66799999999995 479.951 L 468.07099999999997 490.074 C 459.52799999999996 495.848 451.10299999999995 501.526 442.592 507.027 L 434.83 509.49 z" stroke-linecap="round" />
</g>
		<g transform="matrix(1 0 0 1 198.83 232.82)"  >
<path style="stroke: none; stroke-width: 1; stroke-dasharray: none; stroke-linecap: butt; stroke-dashoffset: 0; stroke-linejoin: miter; stroke-miterlimit: 4; fill: rgb(165,154,232); fill-rule: nonzero; opacity: 1;" vector-effect="non-scaling-stroke"  transform=" translate(-454.83, -488.82)" d="M 438.898 496.647 C 441.226 495.783 447.58000000000004 486.28999999999996 447.533 484.435 C 447.482 482.862 436.807 469.63100000000003 434.56100000000004 466.919 C 434.56100000000004 466.919 432.204 468.5 431.96900000000005 469.096 C 430.3960000000001 473.02 438.6890000000001 479.601 439.46200000000005 484.25600000000003 C 439.89500000000004 486.82500000000005 437.58700000000005 490.019 435.91400000000004 492.44500000000005 C 435.29900000000004 493.33900000000006 434.62500000000006 494.22600000000006 433.97 495.09100000000007 C 435.744 495.9990000000001 437.312 497.23100000000005 438.898 496.64700000000005 M 479.416 481.591 C 479.441 480.656 478.11 479.253 476.99 477.866 C 473.213 473.214 470.148 469.59999999999997 466.955 465.634 C 464.86699999999996 467.85900000000004 463.803 470.786 463.39099999999996 473.142 C 462.491 478.288 464.21999999999997 484.598 468.068 490.073 C 470.256 488.592 472.447 487.116 474.64799999999997 485.62899999999996 C 476.61499999999995 484.30499999999995 479.383 482.90799999999996 479.41599999999994 481.59099999999995 M 434.188 497.378 C 433.753 497.18 433.193 497.04699999999997 432.59299999999996 496.99399999999997 C 431.80199999999996 498.15299999999996 431.11999999999995 499.311 430.73599999999993 500.486 C 429.6119999999999 503.884 430.1889999999999 509.048 434.7699999999999 511.99899999999997 L 442.5859999999999 507.01899999999995 C 442.5259999999999 506.94499999999994 439.1359999999999 499.62199999999996 434.1879999999999 497.37799999999993" stroke-linecap="round" />
</g>
		<g transform="matrix(1 0 0 1 3.19 209.24)"  >
<path style="stroke: none; stroke-width: 1; stroke-dasharray: none; stroke-linecap: butt; stroke-dashoffset: 0; stroke-linejoin: miter; stroke-miterlimit: 4; fill: rgb(219,145,113); fill-rule: evenodd; opacity: 1;" vector-effect="non-scaling-stroke"  transform=" translate(-259.19, -465.24)" d="M 272.785 464.724 L 268.511 475.087 L 245.59500000000003 465.18399999999997 L 249.85600000000002 455.38599999999997 z" stroke-linecap="round" />
</g>
		<g transform="matrix(1 0 0 1 -15.76 228.22)"  >
<path style="stroke: none; stroke-width: 1; stroke-dasharray: none; stroke-linecap: butt; stroke-dashoffset: 0; stroke-linejoin: miter; stroke-miterlimit: 4; fill: rgb(124,117,209); fill-rule: evenodd; opacity: 1;" vector-effect="non-scaling-stroke"  transform=" translate(-240.24, -484.22)" d="M 210.623 484.5 L 219.702 477.033 C 220.468 477.077 221.253 477.15200000000004 222.046 477.232 L 234.576 479.024 C 234.576 479.024 244.716 462.466 246.46699999999998 463.178 C 253.52499999999998 466.049 269.621 473.626 269.864 474.423 C 269.864 474.423 267.154 482.171 264.311 490.248 L 256.125 505.284 L 243.96 503.83299999999997 C 234.603 499.503 225.389 495.227 216.281 490.78499999999997 L 210.62300000000002 484.49999999999994 z" stroke-linecap="round" />
</g>
		<g transform="matrix(1 0 0 1 -19.86 229.7)"  >
<path style="stroke: none; stroke-width: 1; stroke-dasharray: none; stroke-linecap: butt; stroke-dashoffset: 0; stroke-linejoin: miter; stroke-miterlimit: 4; fill: rgb(165,154,232); fill-rule: nonzero; opacity: 1;" vector-effect="non-scaling-stroke"  transform=" translate(-236.14, -485.7)" d="M 223.256 482.254 C 225.2 483.803 236.612 484.339 238.172 483.33700000000005 C 239.496 482.48 245.304 466.50100000000003 246.465 463.182 C 246.465 463.182 243.892 461.981 243.261 462.088 C 239.091 462.76800000000003 237.74699999999999 473.27200000000005 234.15699999999998 476.34000000000003 C 232.17999999999998 478.035 228.25699999999998 477.71200000000005 225.31099999999998 477.53000000000003 C 224.22199999999998 477.468 223.123 477.34900000000005 222.045 477.23600000000005 C 222.18099999999998 479.22100000000006 221.93699999999998 481.19700000000006 223.256 482.254 M 257.091 509.163 C 257.897 508.699 258.413 506.834 259.024 505.163 C 261.052 499.52500000000003 262.559 495.031 264.307 490.247 C 261.325 489.613 258.266 490.208 256.043 491.077 C 251.171 492.969 246.661 497.712 243.959 503.835 C 246.361 504.943 248.762 506.051 251.171 507.168 C 253.31699999999998 508.16700000000003 255.94299999999998 509.81600000000003 257.091 509.163 M 220.201 478.605 C 220.13899999999998 478.125 219.965 477.58000000000004 219.701 477.038 C 218.304 476.96000000000004 216.95499999999998 476.974 215.751 477.253 C 212.261 478.04699999999997 208.137 481.21 207.98000000000002 486.65799999999996 L 216.287 490.77399999999994 C 216.318 490.6859999999999 220.832 484.00199999999995 220.201 478.60499999999996" stroke-linecap="round" />
</g>
		<g transform="matrix(1 0 0 1 91.7 88.75)"  >
<path style="stroke: none; stroke-width: 1; stroke-dasharray: none; stroke-linecap: butt; stroke-dashoffset: 0; stroke-linejoin: miter; stroke-miterlimit: 4; fill: rgb(105,175,122); fill-rule: evenodd; opacity: 1;" vector-effect="non-scaling-stroke"  transform=" translate(-347.7, -344.75)" d="M 441.391 414.386 C 432.99100000000004 401.451 424.293 388.59400000000005 415.274 375.357 C 410.833 368.824 406.388 362.47 403.484 354.579 C 400.654 346.869 399.198 337.539 398.714 326.783 C 397.93 309.611 397.35699999999997 289.396 396.746 271.749 C 396.657 269.144 396.106 266.05800000000005 396.464 263.886 C 396.675 262.637 397.817 261.077 398.432 259.675 C 402.975 249.39800000000002 404.23900000000003 231.324 400.92 218.306 C 369.22 218.98700000000002 334.764 224.12300000000002 304.366 220.649 C 303.211 220.855 304.359 221.414 304.366 221.491 C 304.508 222.66500000000002 302.651 225.997 301.842 228.229 C 295.50399999999996 245.746 290.614 264.815 285.56 282.139 C 279.499 302.903 272.966 323.812 267.309 344.189 C 256.85 381.86600000000004 247.23700000000002 419.58500000000004 235.68900000000002 454.928 C 249.103 460.347 262.48600000000005 465.866 275.94 471.197 C 282.061 460.415 287.395 448.741 292.298 436.567 C 299.211 419.4 304.784 401.42 308.582 381.534 C 310.513 371.425 312.33 361.26599999999996 313.914 351.21 C 315.4251489765115 341.6053197527975 317.9664738466464 332.19135391790076 321.49399999999997 323.13100000000003 C 328.39399999999995 305.40099999999995 334.40799999999996 288.178 340.30699999999996 270.62699999999995 C 342.073 294.299 345.11899999999997 316.40999999999997 348.45199999999994 337.16999999999996 C 350.18499999999995 347.979 351.65099999999995 358.95799999999997 355.4719999999999 367.49499999999995 C 359.17799999999994 375.77399999999994 364.60299999999995 383.25299999999993 369.79099999999994 390.79799999999994 C 388.1039999999999 417.43199999999996 405.1549999999999 443.62699999999995 424.5299999999999 468.55799999999994 C 425.65899999999993 467.8379999999999 426.7939999999999 467.12799999999993 427.9069999999999 466.3829999999999 C 435.29599999999994 461.44699999999995 442.45399999999995 456.1769999999999 449.8429999999999 451.2439999999999 C 453.09426085247395 449.08210374677094 456.3851548561778 446.9804123477891 459.7139999999996 444.94000000000005 C 454.02999999999986 434.43899999999996 447.84699999999987 424.32899999999995 441.3909999999999 414.38599999999997 z" stroke-linecap="round" />
</g>
		<g transform="matrix(1 0 0 1 85.73 -17.72)"  >
<path style="stroke: none; stroke-width: 1; stroke-dasharray: none; stroke-linecap: butt; stroke-dashoffset: 0; stroke-linejoin: miter; stroke-miterlimit: 4; fill: rgb(44,137,82); fill-rule: evenodd; opacity: 1;" vector-effect="non-scaling-stroke"  transform=" translate(-341.73, -238.28)" d="M 344.575 226.32 C 345.848 227.41299999999998 345.23699999999997 231.016 345.137 233.34099999999998 C 345.035 235.65099999999998 344.511 239.74999999999997 344.013 242.88899999999998 C 343.67699999999996 245.00099999999998 343.56 250.59799999999998 340.923 250.46699999999998 C 338.415 250.34599999999998 337.935 243.844 338.115 240.641 C 338.40500000000003 235.51 342.293 224.368 344.575 226.32 z" stroke-linecap="round" />
</g>
		<g transform="matrix(1 0 0 1 109.56 88.75)"  >
<path style="stroke: none; stroke-width: 1; stroke-dasharray: none; stroke-linecap: butt; stroke-dashoffset: 0; stroke-linejoin: miter; stroke-miterlimit: 4; fill: rgb(44,137,82); fill-rule: nonzero; opacity: 1;" vector-effect="non-scaling-stroke"  transform=" translate(-365.56, -344.75)" d="M 275.94 471.197 C 282.061 460.415 287.395 448.741 292.298 436.567 C 299.211 419.4 304.784 401.42 308.582 381.534 C 310.513 371.425 312.33 361.26599999999996 313.914 351.21 C 315.4251489765115 341.6053197527975 317.9664738466464 332.19135391790076 321.49399999999997 323.13100000000003 C 328.39399999999995 305.40099999999995 334.40799999999996 288.178 340.30699999999996 270.62699999999995 C 340.30699999999996 270.63399999999996 340.30699999999996 270.63899999999995 340.31199999999995 270.64799999999997 C 341.08699999999993 263.07899999999995 341.55799999999994 253.49599999999998 339.48099999999994 253.49399999999997 C 337.42599999999993 253.49399999999997 335.1979999999999 263.631 333.58899999999994 268.657 C 325.6619999999999 293.399 315.40299999999996 314.614 307.47599999999994 338.573 C 304.28299999999996 348.217 303.24799999999993 360.436 301.85999999999996 371.423 C 300.407 382.889 298.83899999999994 393.829 295.96399999999994 403.993 C 293.13399999999996 413.995 289.84599999999995 423.59 286.41299999999995 432.913 C 281.74799999999993 445.612 276.49099999999993 457.535 271.40399999999994 469.387 C 272.90899999999993 469.99 274.42699999999996 470.595 275.93999999999994 471.197 z M 391.129 335.767 C 391.129 345.342 391.418 354.853 393.65500000000003 361.598 C 395.319 366.59700000000004 398.432 371.478 401.237 376.197 C 409.204 389.591 418.723 404.926 427.35200000000003 417.474 C 434.80100000000004 428.30899999999997 442.95900000000006 439.411 450.83500000000004 450.597 C 453.762176531661 448.6613354987448 456.7219345096574 446.77539825144527 459.7129999999999 444.94000000000005 C 454.03000000000003 434.438 447.84700000000004 424.329 441.391 414.386 C 432.99100000000004 401.451 424.293 388.59400000000005 415.274 375.357 C 410.833 368.824 406.388 362.47 403.484 354.579 C 400.654 346.869 399.198 337.539 398.714 326.783 C 397.93 309.611 397.35699999999997 289.396 396.746 271.749 C 396.657 269.144 396.106 266.05800000000005 396.464 263.886 C 396.675 262.637 397.817 261.077 398.432 259.675 C 402.975 249.39800000000002 404.23900000000003 231.324 400.92 218.306 C 398.607 218.357 396.27700000000004 218.434 393.94 218.52700000000002 C 393.951 218.78900000000002 393.964 219.07000000000002 393.98199999999997 219.394 C 394.486 228.031 393.493 235.246 392.253 241.987 C 391.435 246.436 389.834 250.481 389.167 254.62199999999999 C 387.854 262.716 389.24899999999997 271.611 390.00699999999995 280.736 C 391.49799999999993 298.73199999999997 391.12899999999996 316.366 391.12899999999996 335.767 z" stroke-linecap="round" />
</g>
		<g transform="matrix(1 0 0 1 66.64 107.52)"  >
<path style="stroke: none; stroke-width: 1; stroke-dasharray: none; stroke-linecap: butt; stroke-dashoffset: 0; stroke-linejoin: miter; stroke-miterlimit: 4; fill: rgb(44,137,82); fill-rule: evenodd; opacity: 1;" vector-effect="non-scaling-stroke"  transform=" translate(-322.64, -363.52)" d="M 282.253 355.644 C 286.72499999999997 360.925 270.652 373.395 268.197 366.671 C 268.524 363.358 272.5 362.051 274.924 360.024 C 277.33299999999997 358.00600000000003 280.092 353.093 282.253 355.644 z M 376.297 359.156 C 380.76700000000005 364.437 364.69100000000003 376.90500000000003 362.23600000000005 370.18 C 362.56700000000006 366.869 366.53900000000004 365.562 368.9680000000001 363.533 C 371.37200000000007 361.516 374.1360000000001 356.60400000000004 376.2970000000001 359.156 z" stroke-linecap="round" />
</g>
		<g transform="matrix(1 0 0 1 39.15 -159.21)"  >
<path style="stroke: none; stroke-width: 1; stroke-dasharray: none; stroke-linecap: butt; stroke-dashoffset: 0; stroke-linejoin: miter; stroke-miterlimit: 4; fill: rgb(219,145,113); fill-rule: evenodd; opacity: 1;" vector-effect="non-scaling-stroke"  transform=" translate(-295.15, -96.79)" d="M 301.133 56.598 C 299.65099999999995 63.309 295.09499999999997 69.661 291.524 76.215 C 284.573 88.97500000000001 277.181 105.45700000000001 276.91 118.48500000000001 C 276.863 121.00100000000002 276.863 123.67500000000001 277.288 125.94300000000001 C 277.919 129.32100000000003 280.13800000000003 134.209 285.975 136.39000000000001 C 290.547 138.09500000000003 293.20000000000005 135.758 295.77200000000005 133.23200000000003 C 297.136 131.89600000000002 298.06000000000006 130.16400000000002 298.81300000000005 128.49600000000004 C 301.36100000000005 122.89100000000003 301.91700000000003 117.22100000000003 302.74100000000004 111.76800000000003 C 305.10900000000004 96.17800000000003 307.51500000000004 79.03400000000002 313.40500000000003 62.056000000000026 C 313.40500000000003 62.05500000000003 305.14700000000005 57.92700000000003 301.13300000000004 56.59800000000003 z" stroke-linecap="round" />
</g>
		<g transform="matrix(1 0 0 1 32.55 -141.58)"  >
<path style="stroke: none; stroke-width: 1; stroke-dasharray: none; stroke-linecap: butt; stroke-dashoffset: 0; stroke-linejoin: miter; stroke-miterlimit: 4; fill: rgb(255,255,255); fill-rule: nonzero; opacity: 1;" vector-effect="non-scaling-stroke"  transform=" translate(-288.55, -114.42)" d="M 278.806 113.803 C 278.75 116.318 278.75 118.994 279.17699999999996 121.26299999999999 C 279.81199999999995 124.64099999999999 282.027 129.529 287.86799999999994 131.709 C 292.43999999999994 133.413 295.08599999999996 131.077 297.66499999999996 128.55100000000002 C 298.73999999999995 127.50000000000001 299.53499999999997 126.19400000000002 300.2 124.87500000000001 C 299.8097234038662 126.1079192930484 299.3469164308538 127.31669363814555 298.81399999999996 128.495 C 298.061 130.16400000000002 297.13699999999994 131.895 295.77299999999997 133.231 C 293.20099999999996 135.757 290.54799999999994 138.094 285.97599999999994 136.38899999999998 C 280.13999999999993 134.207 277.91999999999996 129.32 277.28899999999993 125.94199999999998 C 276.86499999999995 123.67399999999998 276.86499999999995 120.99999999999997 276.91099999999994 118.48399999999998 C 277.0799999999999 110.37299999999998 280.00999999999993 100.91999999999999 283.8759999999999 91.86399999999998 C 280.9849999999999 99.43999999999997 278.9409999999999 107.08199999999998 278.8059999999999 113.80299999999997 z" stroke-linecap="round" />
</g>
		<g transform="matrix(1 0 0 1 46.53 -193.71)"  >
<path style="stroke: none; stroke-width: 1; stroke-dasharray: none; stroke-linecap: butt; stroke-dashoffset: 0; stroke-linejoin: miter; stroke-miterlimit: 4; fill: rgb(196,118,91); fill-rule: evenodd; opacity: 1;" vector-effect="non-scaling-stroke"  transform=" translate(-302.53, -62.29)" d="M 299.867 60.688 L 306.185 63.546 C 306.185 63.546 302.91700000000003 64.603 298.871 63.004 L 299.86699999999996 60.687999999999995 z" stroke-linecap="round" />
</g>
		<g transform="matrix(1 0 0 1 38.87 -209.01)"  >
<path style="stroke: none; stroke-width: 1; stroke-dasharray: none; stroke-linecap: butt; stroke-dashoffset: 0; stroke-linejoin: miter; stroke-miterlimit: 4; fill: rgb(124,117,209); fill-rule: evenodd; opacity: 1;" vector-effect="non-scaling-stroke"  transform=" translate(-294.87, -46.99)" d="M 305.321 26.991 C 304.908 27.004 304.466 26.881999999999998 304.00100000000003 26.778 C 301.091 26.147 298.158 25.517999999999997 295.201 24.892999999999997 C 294.968 24.843999999999998 294.754 24.753999999999998 294.53000000000003 24.749999999999996 C 294.19500000000005 24.740999999999996 293.66600000000005 24.903999999999996 293.30600000000004 25.264999999999997 C 292.75100000000003 25.802999999999997 292.46200000000005 26.572999999999997 292.36 27.217 C 291.687 31.651 290.96700000000004 36.098 290.301 40.448 C 289.534 45.455 288.74399999999997 50.32 287.94599999999997 55.306 C 287.55499999999995 57.763 287.20199999999994 60.190999999999995 286.80199999999996 62.64 C 286.61299999999994 63.822 286.373 65.056 286.251 66.279 C 286.131 67.434 286.524 68.722 287.91299999999995 68.916 C 288.17099999999994 68.952 288.45699999999994 68.925 288.722 68.937 C 292.459 69.093 296.26 69.14999999999999 300.017 69.28699999999999 C 300.284 69.29799999999999 300.55899999999997 69.327 300.812 69.30499999999999 C 301.4436777972145 69.2465271069023 302.04589710494525 69.01042385499406 302.54900000000004 68.624 C 302.749 68.463 303.13800000000003 67.753 303.3 67.548 C 303.327 67.837 302.767 68.647 302.502 68.89 C 301.773 69.587 301.005 69.741 300.296 69.727 C 298.163 69.679 295.866 69.555 293.796 69.48 C 291.61 69.40400000000001 289.526 69.33 287.284 69.268 C 286.573 69.248 285.74899999999997 69.321 285.13599999999997 68.796 C 284.49399999999997 68.239 284.359 67.399 284.42999999999995 66.58600000000001 C 284.49399999999997 65.76000000000002 284.66299999999995 64.918 284.77899999999994 64.13700000000001 C 285.51899999999995 59.19100000000002 286.36099999999993 54.10100000000001 287.11799999999994 49.20000000000002 C 287.8999999999999 44.116000000000014 288.68199999999996 39.113000000000014 289.46399999999994 33.97700000000002 C 289.78599999999994 31.831000000000017 290.11699999999996 29.715000000000018 290.4549999999999 27.560000000000016 C 290.57899999999995 26.772000000000016 290.64199999999994 25.73300000000002 291.3929999999999 24.949000000000016 C 291.7459999999999 24.574000000000016 292.1089999999999 24.428000000000015 292.49099999999993 24.319000000000017 C 293.1929999999999 24.124000000000017 293.93499999999995 24.351000000000017 294.6569999999999 24.497000000000018 C 298.2179999999999 25.227000000000018 301.70199999999994 26.13200000000002 305.3209999999999 26.991000000000017 z" stroke-linecap="round" />
</g>
		<g transform="matrix(1 0 0 1 41.83 -208.97)"  >
<path style="stroke: none; stroke-width: 1; stroke-dasharray: none; stroke-linecap: butt; stroke-dashoffset: 0; stroke-linejoin: miter; stroke-miterlimit: 4; fill: rgb(165,154,232); fill-rule: evenodd; opacity: 1;" vector-effect="non-scaling-stroke"  transform=" translate(-297.83, -47.03)" d="M 308.489 28.143 C 308.91799999999995 28.541 309.27099999999996 29.126 309.431 29.656 C 309.58 30.191 309.567 30.662 309.484 31.182 C 308.33491617109934 38.29703568198035 307.16324359813404 45.408404863105176 305.96900000000056 52.51600000000006 C 305.207 56.992 304.49399999999997 61.458 303.734 65.912 C 303.647 66.421 303.616 66.92200000000001 303.441 67.38600000000001 C 303.2151965595356 67.98721135913969 302.81643640559656 68.50810485865695 302.29499999999996 68.88300000000001 C 301.34399999999994 69.54400000000001 300.39799999999997 69.31900000000002 299.45099999999996 69.29200000000002 C 296.18999999999994 69.19800000000002 292.933 69.07300000000002 289.59099999999995 69.01100000000001 C 289.12199999999996 69.00200000000001 288.65299999999996 68.99100000000001 288.1689999999999 68.99100000000001 C 287.67799999999994 68.99100000000001 287.1869999999999 68.88800000000002 286.7779999999999 68.53100000000002 C 285.9599999999999 67.80900000000003 286.0539999999999 66.83100000000002 286.2579999999999 65.59100000000002 C 287.6579999999999 57.09100000000002 288.9729999999999 48.46300000000002 290.3639999999999 39.70300000000002 C 290.9919999999999 35.71400000000002 291.6499999999999 31.415000000000017 292.2969999999999 27.296000000000017 C 292.33699999999993 27.01500000000002 292.3859999999999 26.721000000000018 292.4699999999999 26.472000000000016 C 292.77899999999994 25.546000000000017 293.6139999999999 24.822000000000017 294.3049999999999 24.726000000000017 C 294.6269999999999 24.679000000000016 294.9799999999999 24.77100000000002 295.3289999999999 24.847000000000016 C 299.04221897174517 25.621928425779128 302.750299227592 26.421279059860616 306.4529999999993 27.24500000000004 C 307.12799999999993 27.401000000000014 307.9169999999999 27.544000000000015 308.45699999999994 28.107000000000014 C 308.47099999999995 28.120000000000015 308.4749999999999 28.131000000000014 308.4889999999999 28.143000000000015 z" stroke-linecap="round" />
</g>
		<g transform="matrix(1 0 0 1 42.03 -210.96)"  >
<path style="stroke: none; stroke-width: 1; stroke-dasharray: none; stroke-linecap: butt; stroke-dashoffset: 0; stroke-linejoin: miter; stroke-miterlimit: 4; fill: rgb(255,255,255); fill-rule: nonzero; opacity: 1;" vector-effect="non-scaling-stroke"  transform=" translate(-298.03, -45.04)" d="M 303.546 59.531 C 303.673 58.757 303.806 58.007 303.93899999999996 57.245 C 304.49399999999997 54.099 304.93399999999997 51.135 305.465 48.062 C 305.734 46.504 305.95599999999996 44.955999999999996 306.205 43.437999999999995 C 306.71099999999996 40.367 307.216 37.212999999999994 307.722 34.086 C 307.789 33.705999999999996 307.842 33.311 307.904 32.908 C 307.971 32.527 308.075 32.131 308.122 31.720000000000002 C 308.209 30.934 308.053 30.014000000000003 307.369 29.402 C 307.355 29.389 307.35100000000006 29.375 307.34000000000003 29.365000000000002 C 306.96200000000005 28.970000000000002 306.48900000000003 28.911 306.076 28.819000000000003 C 305.58700000000005 28.709000000000003 305.21200000000005 28.614000000000004 304.71700000000004 28.503000000000004 C 304.49500000000006 28.453000000000003 304.19500000000005 28.340000000000003 304.03700000000003 28.435000000000002 C 303.877 28.533 303.80600000000004 28.827 303.55100000000004 28.948000000000004 C 303.40000000000003 29.018000000000004 303.17500000000007 28.939000000000004 302.94900000000007 28.890000000000004 C 301.6890000000001 28.611000000000004 300.5450000000001 28.387000000000004 299.31500000000005 28.114000000000004 C 299.08400000000006 28.066000000000006 298.82400000000007 28.035000000000004 298.7060000000001 27.905000000000005 C 298.4790000000001 27.677000000000003 298.64400000000006 27.323000000000004 298.4530000000001 27.135000000000005 C 298.3860000000001 27.075000000000006 298.1690000000001 27.054000000000006 298.0220000000001 27.017000000000007 C 297.5640000000001 26.914000000000005 297.1200000000001 26.817000000000007 296.7110000000001 26.723000000000006 C 296.08500000000015 26.582000000000008 295.48700000000014 26.392000000000007 294.9470000000001 26.479000000000006 C 294.4720000000001 26.558000000000007 293.9250000000001 26.972000000000005 293.6850000000001 27.604000000000006 C 293.5490000000001 27.937000000000005 293.5090000000001 28.464000000000006 293.4450000000001 28.888000000000005 C 293.25400000000013 30.141000000000005 293.0360000000001 31.643000000000004 292.86700000000013 32.74400000000001 C 292.6030000000001 34.50600000000001 292.31100000000015 36.205000000000005 292.05200000000013 37.87400000000001 C 291.5430000000001 41.21100000000001 291.04500000000013 44.58000000000001 290.4950000000001 48.013000000000005 C 289.7530000000001 52.64300000000001 288.65500000000014 58.17100000000001 287.9140000000001 62.92 L 303.1560000000001 63.619 C 303.35200000000015 62.431 303.3630000000001 60.695 303.5460000000001 59.531 z" stroke-linecap="round" />
</g>
		<g transform="matrix(1 0 0 1 39.28 -190.26)"  >
<path style="stroke: none; stroke-width: 1; stroke-dasharray: none; stroke-linecap: butt; stroke-dashoffset: 0; stroke-linejoin: miter; stroke-miterlimit: 4; fill: rgb(165,154,232); fill-rule: nonzero; opacity: 1;" vector-effect="non-scaling-stroke"  transform=" translate(-295.28, -65.74)" d="M 302.568 66.987 C 302.68399999999997 66.652 302.733 66.231 302.79699999999997 65.82799999999999 C 302.868 65.44599999999998 302.926 65.03699999999999 302.984 64.66399999999999 C 303.041 64.31299999999999 303.104 63.96299999999999 303.155 63.618999999999986 L 287.91299999999995 62.91999999999999 C 287.81499999999994 63.56499999999999 287.70899999999995 64.20499999999998 287.61099999999993 64.838 C 287.55099999999993 65.25099999999999 287.46399999999994 65.692 287.41799999999995 66.122 C 287.32899999999995 66.917 287.67599999999993 67.865 288.58899999999994 68.104 C 288.8109999999999 68.156 289.06899999999996 68.13 289.33099999999996 68.141 C 292.59499999999997 68.26100000000001 295.938 68.349 299.162 68.498 C 299.67699999999996 68.525 300.193 68.599 300.67699999999996 68.546 C 301.35299999999995 68.47000000000001 302.25899999999996 67.89200000000001 302.568 66.98700000000001 z" stroke-linecap="round" />
</g>
		<g transform="matrix(1 0 0 1 33.96 -208.93)"  >
<path style="stroke: none; stroke-width: 1; stroke-dasharray: none; stroke-linecap: butt; stroke-dashoffset: 0; stroke-linejoin: miter; stroke-miterlimit: 4; fill: rgb(219,145,113); fill-rule: evenodd; opacity: 1;" vector-effect="non-scaling-stroke"  transform=" translate(-289.96, -47.07)" d="M 293.353 45.781 C 294.901 47.006 297.63800000000003 48.056 297.141 49.844 C 296.62100000000004 51.67 293.689 51.103 291.63800000000003 51.126000000000005 C 292.598 51.55800000000001 293.946 52.221000000000004 293.735 53.398 C 293.45300000000003 54.943000000000005 289.358 55.196000000000005 286.493 54.343 C 282.59 53.182 280.75 49.06400000000001 285.149 48.81700000000001 C 283.35 46.986000000000004 284.653 43.51700000000001 287.275 43.965 C 286.226 42.832 285.251 42.125 285.85999999999996 40.611000000000004 C 287.32899999999995 36.955000000000005 298.17199999999997 41.877 297.27 44.946000000000005 C 296.856 46.345000000000006 295.066 46.163000000000004 293.353 45.781000000000006" stroke-linecap="round" />
</g>
		<g transform="matrix(1 0 0 1 29.37 -209.93)"  >
<path style="stroke: none; stroke-width: 1; stroke-dasharray: none; stroke-linecap: butt; stroke-dashoffset: 0; stroke-linejoin: miter; stroke-miterlimit: 4; fill: rgb(196,118,91); fill-rule: nonzero; opacity: 1;" vector-effect="non-scaling-stroke"  transform=" translate(-285.37, -46.07)" d="M 285.859 40.611 C 285.25 42.125 286.024 43.035999999999994 287.274 43.964999999999996 C 284.206 43.336 283.02 47.013 285.148 48.81699999999999 C 284.63000000000005 48.84799999999999 284.202 48.93099999999999 283.853 49.05599999999999 C 283.813 49.07599999999999 283.771 49.08999999999999 283.729 49.10799999999999 C 283.6118316635529 49.15626380157583 283.4982160217612 49.21273745881936 283.389 49.27699999999999 C 283.327 49.31499999999998 283.278 49.353999999999985 283.224 49.39199999999999 C 282.162 50.18399999999999 282.549 51.63799999999999 283.79699999999997 52.816999999999986 C 283.73699999999997 52.323999999999984 283.755 51.83499999999999 283.90799999999996 51.37599999999998 C 284.23699999999997 50.393999999999984 284.84099999999995 49.72799999999998 285.59 49.24899999999998 C 285.4451715748385 49.05284772409583 285.3277573691076 48.83786870557986 285.241 48.60999999999998 C 284.643 46.933999999999976 285.443 45.11499999999998 286.938 44.25299999999998 C 287.245348895785 44.077715350094934 287.5859875319341 43.96871098652722 287.938 43.93299999999998 C 286.556 42.98799999999998 286.496 40.85699999999998 287.371 39.89199999999998 C 287.609 39.631999999999984 287.871 39.45099999999998 288.133 39.32899999999998 C 287.048 39.38599999999998 286.20099999999996 39.76699999999998 285.859 40.610999999999976 z" stroke-linecap="round" />
</g>
		<g transform="matrix(1 0 0 1 35.84 -218.03)"  >
<path style="stroke: none; stroke-width: 1; stroke-dasharray: none; stroke-linecap: butt; stroke-dashoffset: 0; stroke-linejoin: miter; stroke-miterlimit: 4; fill: rgb(219,145,113); fill-rule: evenodd; opacity: 1;" vector-effect="non-scaling-stroke"  transform=" translate(-291.84, -37.97)" d="M 286.179 35.898 C 285.61499999999995 37.308 286.86999999999995 38.873000000000005 288.42999999999995 39.317 C 289.16799999999995 39.388 293.5729999999999 40.953 294.11999999999995 41.161 C 295.68399999999997 41.469 297.21899999999994 41.514 297.59499999999997 40.232 C 298.496 37.164 287.654 32.248 286.179 35.897999999999996 z" stroke-linecap="round" />
</g>
		<g transform="matrix(1 0 0 1 31.37 -219.04)"  >
<path style="stroke: none; stroke-width: 1; stroke-dasharray: none; stroke-linecap: butt; stroke-dashoffset: 0; stroke-linejoin: miter; stroke-miterlimit: 4; fill: rgb(196,118,91); fill-rule: nonzero; opacity: 1;" vector-effect="non-scaling-stroke"  transform=" translate(-287.37, -36.96)" d="M 286.184 35.905 C 285.18 38.197 288.12600000000003 39.221000000000004 288.43 39.318 C 286.586 37.873999999999995 287.077 35.533 288.75600000000003 34.605 C 287.53200000000004 34.602 286.586 34.989 286.184 35.904999999999994 z" stroke-linecap="round" />
</g>
		<g transform="matrix(1 0 0 1 48.43 -209.01)"  >
<path style="stroke: none; stroke-width: 1; stroke-dasharray: none; stroke-linecap: butt; stroke-dashoffset: 0; stroke-linejoin: miter; stroke-miterlimit: 4; fill: rgb(219,145,113); fill-rule: nonzero; opacity: 1;" vector-effect="non-scaling-stroke"  transform=" translate(-304.43, -46.99)" d="M 303.912 51.931 C 305.729 47.43 306.08 44.212999999999994 300.251 39.257 C 298.03799999999995 37.376 291.995 33.156 293.693 29.665 C 294.195 29.173 304.421 36.150999999999996 306.623 37.503 C 310.79699999999997 40.073 313.96999999999997 43.429 314.772 45.467 C 315.796 48.086999999999996 315.947 55.447 313.406 62.056 C 312.13100000000003 65.372 308.432 64.585 304.264 62.785999999999994 C 301.115 61.425999999999995 302.384 55.72299999999999 303.91200000000003 51.931 z" stroke-linecap="round" />
</g>
		<g transform="matrix(1 0 0 1 40.63 -127)"  >
<path style="stroke: none; stroke-width: 1; stroke-dasharray: none; stroke-linecap: butt; stroke-dashoffset: 0; stroke-linejoin: miter; stroke-miterlimit: 4; fill: rgb(124,117,209); fill-rule: evenodd; opacity: 1;" vector-effect="non-scaling-stroke"  transform=" translate(-296.63, -129)" d="M 290.047 73.237 C 296.754 73.461 303.086 74.056 309.704 74.36 C 307.63100000000003 89.695 301.979 111.979 299.698 127.09899999999999 C 306.632 112.606 315.832 89.97999999999999 329.923 82.636 C 329.314 85.60499999999999 328.279 88.329 327.392 91.207 C 322.067 108.591 317.35699999999997 127.881 313.913 147.363 C 313.315 150.759 313.529 154.503 312.511 157.47 C 312.047 158.839 310.305 160.656 308.865 162.243 C 305.053 166.42499999999998 299.958 170.891 295.944 174.32 C 293.034 176.802 290.368 179.351 286.398 181.619 C 279.52200000000005 185.54 269.44300000000004 186.811 265.619 179.373 C 261.091 170.546 264.348 153.94899999999998 266.463 143.43099999999998 C 269.829 126.70099999999998 274.963 110.32199999999997 280.499 95.69899999999998 C 283.52700000000004 87.72399999999999 286.519 79.90599999999998 290.047 73.23699999999998 z" stroke-linecap="round" />
</g>
		<g transform="matrix(1 0 0 1 81.98 -106.93)"  >
<path style="stroke: none; stroke-width: 1; stroke-dasharray: none; stroke-linecap: butt; stroke-dashoffset: 0; stroke-linejoin: miter; stroke-miterlimit: 4; fill: rgb(255,255,255); fill-rule: evenodd; opacity: 1;" vector-effect="non-scaling-stroke"  transform=" translate(-337.98, -149.07)" d="M 273.774 179.73 C 275.152 178.03799999999998 272.101 176.772 271.293 177.797 C 270.21500000000003 179.177 272.561 181.222 273.774 179.73 z M 272.725 174.047 C 273.687 172.22 269.028 170.327 268.37100000000004 172.106 C 268.09100000000007 172.85399999999998 268.516 173.249 269.34200000000004 173.849 C 270.57000000000005 174.731 272.045 175.328 272.725 174.047 z M 401.237 219.244 L 376.55600000000004 217.568 L 355.50300000000004 222.455 C 349.08600000000007 222.679 342.636 222.786 336.24100000000004 222.74 L 318.83900000000006 218.60500000000002 L 304.0880000000001 220.92700000000002 C 305.69000000000005 199.217 309.14200000000005 178.60200000000003 309.1470000000001 155.50500000000002 C 309.1470000000001 143.50500000000002 307.89600000000013 132.30900000000003 308.5830000000001 121.53200000000002 C 309.2360000000001 111.22600000000003 311.4550000000001 101.75900000000003 316.4430000000001 94.29500000000003 C 324.9520000000001 81.57200000000003 341.6190000000001 76.43100000000003 361.6490000000001 75.48400000000004 C 380.0310000000001 74.61300000000004 392.2160000000001 79.70600000000003 399.2740000000001 89.80200000000004 C 409.5360000000001 104.48700000000004 408.80900000000014 130.93300000000005 405.4500000000001 152.97700000000003 C 403.8770000000001 163.32300000000004 401.6930000000001 174.07300000000004 400.3980000000001 184.98700000000002 C 399.0350000000001 196.419 399.94000000000005 207.89400000000003 401.2370000000001 219.24400000000003 z" stroke-linecap="round" />
</g>
		<g transform="matrix(1 0 0 1 99.89 -106.89)"  >
<path style="stroke: none; stroke-width: 1; stroke-dasharray: none; stroke-linecap: butt; stroke-dashoffset: 0; stroke-linejoin: miter; stroke-miterlimit: 4; fill: rgb(165,154,232); fill-rule: nonzero; opacity: 1;" vector-effect="non-scaling-stroke"  transform=" translate(-355.89, -149.11)" d="M 400.397 184.989 C 401.692 174.07500000000002 403.876 163.325 405.449 152.979 C 408.808 130.935 409.535 104.489 399.273 89.80400000000002 C 393.641 81.74900000000002 384.184 76.68200000000002 371.478 75.48600000000002 C 366 82.2 362.317 90.398 359.684 99.63 C 356.34700000000004 111.33099999999999 355.619 125.15599999999999 354.91200000000003 140.063 C 353.646 166.63 354.41 196.04999999999998 355.50300000000004 222.44599999999997 C 371.41 221.88999999999996 387.11 220.63499999999996 401.237 219.24399999999997 C 399.94 207.89399999999998 399.035 196.41899999999998 400.39700000000005 184.98899999999998 z M 343.973 77.729 C 331.992 80.412 322.288 85.557 316.443 94.29599999999999 C 311.455 101.761 309.236 111.22699999999999 308.58299999999997 121.53299999999999 C 307.89599999999996 132.30999999999997 309.147 143.50599999999997 309.147 155.50599999999997 C 309.143 178.60199999999998 305.69 199.21799999999996 304.08799999999997 220.92799999999997 C 314.33399999999995 222.12299999999996 325.20399999999995 222.65199999999996 336.24199999999996 222.73199999999997 C 335.53999999999996 197.74899999999997 335.53999999999996 171.24799999999996 335.53999999999996 145.68099999999998 C 335.539 120.02099999999999 344.46299999999997 77.61899999999999 343.97299999999996 77.72899999999998 z" stroke-linecap="round" />
</g>
		<g transform="matrix(1 0 0 1 62.72 -157.12)"  >
<path style="stroke: none; stroke-width: 1; stroke-dasharray: none; stroke-linecap: butt; stroke-dashoffset: 0; stroke-linejoin: miter; stroke-miterlimit: 4; fill: rgb(255,255,255); fill-rule: evenodd; opacity: 1;" vector-effect="non-scaling-stroke"  transform=" translate(-318.72, -98.88)" d="M 314.798 105.401 C 314.287 103.86 317.115 97.89399999999999 319.086 98.984 C 320.69 99.87299999999999 318.07300000000004 105.08099999999999 316.298 105.79899999999999 C 315.836 105.984 315.496 105.955 314.798 105.401 z M 320.055 96.272 C 318.144 95.485 320.515 91.049 322.159 91.994 C 322.854 92.392 322.779 92.967 322.52299999999997 93.957 C 322.145 95.42099999999999 321.388 96.82199999999999 320.05499999999995 96.27199999999999 z" stroke-linecap="round" />
</g>
		<g transform="matrix(1 0 0 1 102.73 -206.43)"  >
<path style="stroke: none; stroke-width: 1; stroke-dasharray: none; stroke-linecap: butt; stroke-dashoffset: 0; stroke-linejoin: miter; stroke-miterlimit: 4; fill: rgb(219,145,113); fill-rule: evenodd; opacity: 1;" vector-effect="non-scaling-stroke"  transform=" translate(-358.73, -49.57)" d="M 375.386 36.378 C 378.99800000000005 36.028 383.208 37.039 383.84200000000004 40.087 C 384.65500000000003 44.005 380.821 46.743 378.32300000000004 48.005 C 377.18100000000004 48.583000000000006 375.90200000000004 48.628 375.17900000000003 49.292 C 374.48800000000006 49.933 373.67900000000003 52.628 373.528 53.709 C 372.786 59.169000000000004 371.51300000000003 75.485 371.51300000000003 75.485 C 369.307 89.759 342.372 91.297 344.00700000000006 77.887 L 344.9890000000001 66.476 C 340.4790000000001 65.6 337.0800000000001 62.545 334.9270000000001 57.873999999999995 C 333.7410000000001 55.30499999999999 333.1160000000001 50.446999999999996 333.7850000000001 46.586999999999996 C 334.15600000000006 44.434999999999995 335.2270000000001 41.628 336.31500000000005 38.565 C 338.16600000000005 33.397 339.83400000000006 28.409 342.01800000000003 23.495999999999995 C 343.30400000000003 20.583999999999996 344.37100000000004 17.976999999999997 345.579 16.630999999999993 C 348.16700000000003 13.752999999999993 352.932 11.660999999999994 358.753 12.058999999999994 C 367.15999999999997 12.631999999999994 375.508 19.327999999999996 376.704 27.599999999999994 C 377.23900000000003 31.289999999999996 376.466 33.66499999999999 375.386 36.37799999999999" stroke-linecap="round" />
</g>
		<g transform="matrix(1 0 0 1 100.74 -218.35)"  >
<path style="stroke: none; stroke-width: 1; stroke-dasharray: none; stroke-linecap: butt; stroke-dashoffset: 0; stroke-linejoin: miter; stroke-miterlimit: 4; fill: rgb(255,255,255); fill-rule: evenodd; opacity: 1;" vector-effect="non-scaling-stroke"  transform=" translate(-356.74, -37.65)" d="M 361.119 38.542 C 355.19000000000005 41.668 352.36400000000003 36.667 352.36400000000003 36.667 C 352.36400000000003 36.667 354.05 35.34 357.15200000000004 35.858000000000004 C 359.45300000000003 36.23800000000001 361.119 38.542 361.119 38.542" stroke-linecap="round" />
</g>
		<g transform="matrix(1 0 0 1 98.85 -218.37)"  >
<path style="stroke: none; stroke-width: 1; stroke-dasharray: none; stroke-linecap: butt; stroke-dashoffset: 0; stroke-linejoin: miter; stroke-miterlimit: 4; fill: rgb(124,117,209); fill-rule: evenodd; opacity: 1;" vector-effect="non-scaling-stroke"  transform=" translate(-354.85, -37.63)" d="M 352.364 36.667 C 352.364 36.667 353.726 39.105000000000004 356.614 39.517 C 356.765 39.337 357.092 38.980000000000004 357.18899999999996 38.747 C 357.604 37.695 357.15999999999997 36.493 356.203 35.749 C 353.712 35.615 352.364 36.667 352.364 36.667" stroke-linecap="round" />
</g>
		<g transform="matrix(1 0 0 1 101.84 -221.93)"  >
<path style="stroke: none; stroke-width: 1; stroke-dasharray: none; stroke-linecap: butt; stroke-dashoffset: 0; stroke-linejoin: miter; stroke-miterlimit: 4; fill: rgb(124,117,209); fill-rule: nonzero; opacity: 1;" vector-effect="non-scaling-stroke"  transform=" translate(-357.84, -34.07)" d="M 362.074 36.601 C 359.372 32.96 354.55600000000004 32.927 352.774 33.467 L 352.285 31.887 C 355.113 31.029 360.432 31.613 363.391 35.618 L 362.074 36.601 z" stroke-linecap="round" />
</g>
		<g transform="matrix(1 0 0 1 86.75 -222.62)"  >
<path style="stroke: none; stroke-width: 1; stroke-dasharray: none; stroke-linecap: butt; stroke-dashoffset: 0; stroke-linejoin: miter; stroke-miterlimit: 4; fill: rgb(255,255,255); fill-rule: evenodd; opacity: 1;" vector-effect="non-scaling-stroke"  transform=" translate(-342.75, -33.38)" d="M 346.847 34.014 C 341.484 37.173 338.654 32.661 338.654 32.661 C 338.654 32.661 340.151 31.35 343.053 31.688000000000002 C 345.203 31.952 346.847 34.014 346.847 34.014" stroke-linecap="round" />
</g>
		<g transform="matrix(1 0 0 1 84.99 -222.63)"  >
<path style="stroke: none; stroke-width: 1; stroke-dasharray: none; stroke-linecap: butt; stroke-dashoffset: 0; stroke-linejoin: miter; stroke-miterlimit: 4; fill: rgb(124,117,209); fill-rule: evenodd; opacity: 1;" vector-effect="non-scaling-stroke"  transform=" translate(-340.99, -33.37)" d="M 338.654 32.661 C 338.654 32.661 340.018 34.86 342.713 35.112 C 342.851 34.936 343.142 34.594 343.209 34.372 C 343.549 33.382 343.098 32.286 342.165 31.637999999999998 C 339.85400000000004 31.613999999999997 338.654 32.661 338.654 32.661" stroke-linecap="round" />
</g>
		<g transform="matrix(1 0 0 1 87.79 -225.96)"  >
<path style="stroke: none; stroke-width: 1; stroke-dasharray: none; stroke-linecap: butt; stroke-dashoffset: 0; stroke-linejoin: miter; stroke-miterlimit: 4; fill: rgb(124,117,209); fill-rule: nonzero; opacity: 1;" vector-effect="non-scaling-stroke"  transform=" translate(-343.79, -30.04)" d="M 347.652 32.438 C 345.168 29.086000000000002 340.73199999999997 29.053000000000004 339.08799999999997 29.553000000000004 L 338.61199999999997 27.970000000000006 C 341.23999999999995 27.168000000000006 346.20599999999996 27.709000000000007 348.974 31.454000000000008 L 347.652 32.43800000000001 z" stroke-linecap="round" />
</g>
		<g transform="matrix(1 0 0 1 96.95 -186.64)"  >
<path style="stroke: none; stroke-width: 1; stroke-dasharray: none; stroke-linecap: butt; stroke-dashoffset: 0; stroke-linejoin: miter; stroke-miterlimit: 4; fill: rgb(196,118,91); fill-rule: evenodd; opacity: 1;" vector-effect="non-scaling-stroke"  transform=" translate(-352.95, -69.36)" d="M 361.557 64.679 C 360.16400000000004 68.412 352.07300000000004 74.774 344.344 73.97800000000001 L 344.99 66.47600000000001 C 348.833 67.75300000000001 357.449 67.32800000000002 361.557 64.67900000000002" stroke-linecap="round" />
</g>
		<g transform="matrix(1 0 0 1 92.46 -204.36)"  >
<path style="stroke: none; stroke-width: 1; stroke-dasharray: none; stroke-linecap: butt; stroke-dashoffset: 0; stroke-linejoin: miter; stroke-miterlimit: 4; fill: rgb(255,255,255); fill-rule: evenodd; opacity: 1;" vector-effect="non-scaling-stroke"  transform=" translate(-348.46, -51.64)" d="M 356.68 48.469 C 357.982 53.003 352.21 57.118 346.201 56.536 C 344.03000000000003 56.319 340.46000000000004 54.759 340.118 52.349000000000004 C 339.531 48.14 343.484 48.665000000000006 346.943 48.36300000000001 C 350.32599999999996 48.07600000000001 355.587 44.660000000000004 356.68 48.46900000000001" stroke-linecap="round" />
</g>
		<g transform="matrix(1 0 0 1 98.07 -214.36)"  >
<path style="stroke: none; stroke-width: 1; stroke-dasharray: none; stroke-linecap: butt; stroke-dashoffset: 0; stroke-linejoin: miter; stroke-miterlimit: 4; fill: rgb(196,118,91); fill-rule: evenodd; opacity: 1;" vector-effect="non-scaling-stroke"  transform=" translate(-354.07, -41.64)" d="M 347.201 46.625 C 338.243 44.007 346.088 38.394999999999996 348.625 35.068 C 348.772 34.887 348.878 34.477999999999994 349.212 34.454 C 350.948 34.305 348.842 43.492000000000004 347.20099999999996 46.625 M 365.114 45.572 C 365.1420260865726 46.408563888681776 364.8359426572306 47.22188341095379 364.26332392784184 47.832401545105526 C 363.69070519845303 48.44291967925726 362.89864250975285 48.800428292014495 362.06199999999995 48.826 C 360.3184600809646 48.87705023581176 358.8624845530481 47.50740443965803 358.80699999999996 45.764 C 358.7669605842834 44.63379387273927 359.3349094168587 43.568605677655235 360.2956624543723 42.97201314852248 C 361.2564154918859 42.37542061938973 362.46299851152116 42.33868937794848 363.4582622105328 42.87573613041834 C 364.45352590954434 43.41278288288821 365.08521668794526 44.441451210316075 365.114 45.572" stroke-linecap="round" />
</g>
		<g transform="matrix(1 0 0 1 81.36 -216.49)"  >
<path style="stroke: none; stroke-width: 1; stroke-dasharray: none; stroke-linecap: butt; stroke-dashoffset: 0; stroke-linejoin: miter; stroke-miterlimit: 4; fill: rgb(196,118,91); fill-rule: nonzero; opacity: 1;" vector-effect="non-scaling-stroke"  transform=" translate(-337.36, -39.51)" d="M 339.705 39.388 C 339.7549389511016 41.131117882115234 338.38591534823206 42.58643199947002 336.643 42.643 C 336.07523494897293 42.65638127754488 335.5143176947248 42.516842748778735 335.01899999999995 42.239 C 335.41399999999993 41.076 335.86499999999995 39.849 336.316 38.565 C 336.587 37.830999999999996 336.84 37.105 337.094 36.376999999999995 C 338.56651532209855 36.637544555412724 339.6555607947501 37.89342962555976 339.705 39.388 z" stroke-linecap="round" />
</g>
		<g transform="matrix(1 0 0 1 98.25 -229.63)"  >
<path style="stroke: none; stroke-width: 1; stroke-dasharray: none; stroke-linecap: butt; stroke-dashoffset: 0; stroke-linejoin: miter; stroke-miterlimit: 4; fill: rgb(124,117,209); fill-rule: evenodd; opacity: 1;" vector-effect="non-scaling-stroke"  transform=" translate(-354.25, -26.37)" d="M 350.851 6.296 C 349.007 5.351 347.487 0.9610000000000003 343.737 0.15600000000000058 C 340.069 -0.6339999999999995 336.708 1.5760000000000005 336.81 6.582000000000001 C 332.991 1.357000000000001 323.198 1.8760000000000003 324.238 10.612000000000002 C 324.909 16.353 333.478 23.374000000000002 341.949 26.186 C 351.72 29.424 360.777 28.589 366.853 26.729 C 366.344 31.055999999999997 368.166 35.532 369.859 39.534 C 371.20099999999996 42.687 367.411 51.555 370.37899999999996 52.668 C 373.00499999999994 53.652 374.04699999999997 44.04 376.74799999999993 39.173 C 378.63199999999995 35.796 381.27599999999995 37.913000000000004 383.2509999999999 30.414 C 383.9149999999999 27.91 384.7989999999999 23.453000000000003 384.07699999999994 21.472 C 382.77699999999993 17.89 376.87499999999994 17.868000000000002 373.12199999999996 15.32 C 369.44999999999993 12.828 364.70899999999995 -2.4879999999999995 354.94699999999995 1.5540000000000003 C 353.25899999999996 2.2560000000000002 351.72399999999993 5.0040000000000004 350.85099999999994 6.296 z" stroke-linecap="round" />
</g>
		<g transform="matrix(1 0 0 1 99.23 -237.88)"  >
<path style="stroke: none; stroke-width: 1; stroke-dasharray: none; stroke-linecap: butt; stroke-dashoffset: 0; stroke-linejoin: miter; stroke-miterlimit: 4; fill: rgb(255,255,255); fill-rule: evenodd; opacity: 1;" vector-effect="non-scaling-stroke"  transform=" translate(-355.23, -18.12)" d="M 377.544 29.852 C 378.05699999999996 29.893 378.275 29.429000000000002 378.495 29.005 C 378.666 28.677 378.848 28.238 378.688 27.887999999999998 C 378.472 27.395999999999997 377.795 27.717999999999996 377.51 28.081 C 377.419 28.2 377.26599999999996 28.55 377.18399999999997 28.736 C 377.037 29.14 376.986 29.805 377.544 29.852 z M 380.834 27.434 C 381.496 27.456 381.749 26.868000000000002 381.912 26.355 C 382.118 25.683 382.274 24.73 382.376 23.931 C 382.505 22.948 382.265 21.338 381.174 21.52 C 380.03 21.709 379.965 23.983 379.90099999999995 25.146 C 379.847 25.996000000000002 379.87799999999993 27.402 380.83399999999995 27.434 z M 337.823 16.378 C 337.13399999999996 16.655 336.63399999999996 16.104 336.13899999999995 15.614 C 335.76099999999997 15.235000000000001 335.31299999999993 14.704 335.38399999999996 14.15 C 335.47499999999997 13.376000000000001 336.54999999999995 13.531 337.09899999999993 13.911 C 337.27699999999993 14.039 337.6499999999999 14.449 337.83199999999994 14.677999999999999 C 338.22099999999995 15.169999999999998 338.56999999999994 16.075 337.8229999999999 16.378 z M 332.22 14.448 C 331.305 14.766 330.70500000000004 14.061 330.261 13.413 C 329.67900000000003 12.575000000000001 329.057 11.322 328.559 10.259 C 327.964 8.954 327.59900000000005 6.622 329.19 6.399000000000001 C 330.861 6.162000000000001 331.929 9.291 332.527 10.873000000000001 C 332.96 12.032000000000002 333.526 13.993000000000002 332.21999999999997 14.448 z" stroke-linecap="round" />
</g>
		<g transform="matrix(1 0 0 1 137.14 -43.93)"  >
<path style="stroke: none; stroke-width: 1; stroke-dasharray: none; stroke-linecap: butt; stroke-dashoffset: 0; stroke-linejoin: miter; stroke-miterlimit: 4; fill: rgb(124,117,209); fill-rule: evenodd; opacity: 1;" vector-effect="non-scaling-stroke"  transform=" translate(-393.14, -212.07)" d="M 371.743 72.56 C 373.734 73.005 377.892 75.629 377.963 76.47800000000001 C 378.463 82.421 377.30800000000005 88.80900000000001 376.797 95.02100000000002 C 376.213 102.05700000000002 377.19300000000004 109.99800000000002 373.70700000000005 114.95700000000002 C 370.85400000000004 119.01700000000002 365.46900000000005 118.95500000000003 363.03900000000004 119.72900000000003 C 363.77200000000005 125.56100000000002 364.50100000000003 129.80100000000002 362.47700000000003 134.05000000000004 C 361.00800000000004 137.14200000000005 356.019 143.75000000000003 354.68600000000004 144.55300000000005 C 354.02400000000006 130.08700000000005 355.06800000000004 115.91200000000006 357.70700000000005 103.16500000000005 C 360.46400000000006 89.83200000000005 363.3430000000001 80.25500000000005 371.74300000000005 72.56000000000004 z M 340.762 101.281 C 338.889 115.31400000000001 336.112 127.614 335.548 143.08 C 333.7 141.859 329.281 134.85600000000002 328.897 132.75500000000002 C 327.91499999999996 127.41400000000003 331.852 121.06600000000003 332.616 117.84500000000003 C 331.71 116.72100000000003 328.835 116.49300000000002 327.844 115.03800000000003 C 325.236 111.19900000000003 328.615 100.36100000000002 329.53 96.50500000000002 C 330.214 93.62700000000002 330.78099999999995 91.01800000000003 331.774 87.80400000000003 C 332.669 84.91300000000003 333.42 81.48100000000002 334.589 79.94200000000004 C 336.167 77.84300000000003 341.274 75.82600000000004 344.3 74.48100000000004 C 344.648 74.32800000000003 341.884 92.84900000000003 340.762 101.28100000000003 z M 376.113 279.968 C 374.427 279.927 371.814 279.988 369.277 280.115 C 364.05199999999996 280.382 358.267 279.986 356.8 284.007 C 356.069 285.999 356.014 288.952 355.96500000000003 291.866 C 355.91400000000004 294.68399999999997 356.20700000000005 297.65299999999996 356.34700000000004 300.401 C 356.98900000000003 312.439 358.422 321.583 358.68600000000004 333.926 C 358.74600000000004 336.645 358.97900000000004 339.514 359.266 342.255 C 359.67 346.08 359.77000000000004 350.003 362.481 351.235 C 363.705 351.789 365.915 351.487 368.015 351.516 C 370.032 351.54 372.121 351.286 373.84 351.19 C 378.02599999999995 350.951 381.92499999999995 350.73199999999997 385.484 350.534 C 394.017 350.063 401.322 350.087 409.393 349.913 C 417.018 349.75 425.09999999999997 349.999 433.21099999999996 349.599 C 440.11799999999994 349.255 449.59299999999996 350.033 454.87199999999996 347.219 C 459.07099999999997 344.977 459.29999999999995 339.603 459.39099999999996 333.151 C 459.56699999999995 320.522 458.14699999999993 308.93 457.60499999999996 297.00100000000003 C 457.472 294.14500000000004 457.405 290.84400000000005 457.205 287.862 C 456.969 284.416 456.507 280.958 455.019 279.76800000000003 C 453.511 278.56500000000005 449.541 278.58200000000005 446.146 278.653 C 442.605 278.731 439.204 278.932 436.207 279.06800000000004 C 416.521 279.96600000000007 396.031 279.54 376.312 279.96600000000007 C 376.244 279.96400000000006 376.177 279.9700000000001 376.113 279.9680000000001 z" stroke-linecap="round" />
</g>
		<g transform="matrix(1 0 0 1 150.08 42.38)"  >
<path style="stroke: none; stroke-width: 1; stroke-dasharray: none; stroke-linecap: butt; stroke-dashoffset: 0; stroke-linejoin: miter; stroke-miterlimit: 4; fill: rgb(165,154,232); fill-rule: nonzero; opacity: 1;" vector-effect="non-scaling-stroke"  transform=" translate(-406.08, -298.38)" d="M 446.709 299.656 C 435.228 315.772 407.986 323.88100000000003 384.568 313.50100000000003 C 378.772 310.92800000000005 372.38399999999996 305.91 368.20599999999996 301.52500000000003 C 363.41799999999995 296.509 359.722 290.13100000000003 357.33799999999997 282.99 C 359.373 280.068 364.549 280.35900000000004 369.277 280.11400000000003 C 371.81399999999996 279.987 374.42699999999996 279.92600000000004 376.113 279.96700000000004 C 376.177 279.96900000000005 376.24399999999997 279.963 376.311 279.963 C 396.03 279.53700000000003 416.52 279.963 436.20599999999996 279.065 C 439.203 278.928 442.604 278.727 446.145 278.65 C 449.402 278.58099999999996 453.192 278.56699999999995 454.81399999999996 279.628 C 453.359 286.659 450.88599999999997 293.298 447.50499999999994 298.50399999999996 C 447.25399999999996 298.89099999999996 446.97999999999996 299.275 446.70899999999995 299.65599999999995 z" stroke-linecap="round" />
</g>
		<g transform="matrix(1 0 0 1 151.97 23.22)"  >
<path style="stroke: none; stroke-width: 1; stroke-dasharray: none; stroke-linecap: butt; stroke-dashoffset: 0; stroke-linejoin: miter; stroke-miterlimit: 4; fill: rgb(165,154,232); fill-rule: nonzero; opacity: 1;" vector-effect="non-scaling-stroke"  transform=" translate(-407.97, -279.22)" d="M 382.549 285.049 L 382.316 274.5 C 382.2 269.007 386.573 264.439 392.06199999999995 264.319 L 423.2289999999999 263.64500000000004 C 428.71399999999994 263.526 433.2819999999999 267.898 433.40199999999993 273.39000000000004 L 433.6289999999999 283.93600000000004 C 433.75299999999993 289.432 429.3809999999999 293.999 423.8869999999999 294.119 L 392.7259999999999 294.795 C 387.2299999999999 294.916 382.66899999999987 290.54200000000003 382.54899999999986 285.04900000000004 z M 392.253 272.96999999999997 C 391.904305655926 272.9762797817311 391.5725579286587 273.1215514407735 391.3314593133348 273.37354080351855 C 391.09036069801095 273.6255301662636 390.95987806695007 273.9633684300222 390.969 274.31199999999995 L 391.19599999999997 284.85999999999996 C 391.20899999999995 285.58599999999996 391.816 286.162 392.542 286.14699999999993 L 423.698 285.46799999999996 C 424.0468691079094 285.4617129736837 424.3788145546472 285.3165061702103 424.62022999983174 285.064578077335 C 424.8616454450163 284.8126499844597 424.99258002233177 284.4748202465027 424.984 284.126 L 424.755 273.577 C 424.73753250473607 272.8508988675004 424.13511763853546 272.2762326801292 423.409 272.293 L 392.253 272.97 z" stroke-linecap="round" />
</g>
		<g transform="matrix(1 0 0 1 152.79 61.25)"  >
<path style="stroke: none; stroke-width: 1; stroke-dasharray: none; stroke-linecap: butt; stroke-dashoffset: 0; stroke-linejoin: miter; stroke-miterlimit: 4; fill: rgb(249,216,122); fill-rule: nonzero; opacity: 1;" vector-effect="non-scaling-stroke"  transform=" translate(-408.79, -317.25)" d="M 399.447 311.744 C 399.867 310.61 401.087 310.56800000000004 401.98 310.54 L 402.309 310.52700000000004 C 402.76000000000005 310.50100000000003 403.226 310.49300000000005 403.51300000000003 310.49700000000007 C 404.81000000000006 310.4720000000001 406.12800000000004 310.4650000000001 407.45000000000005 310.4600000000001 C 409.48100000000005 310.4510000000001 411.52700000000004 310.4400000000001 413.51900000000006 310.3490000000001 L 413.93700000000007 310.3290000000001 C 414.33700000000005 310.3100000000001 414.7630000000001 310.2880000000001 415.2100000000001 310.2810000000001 C 416.0520000000001 310.2600000000001 416.7790000000001 310.2760000000001 417.2560000000001 310.6540000000001 C 417.7430000000001 311.0470000000001 417.88200000000006 311.7240000000001 417.94700000000006 312.6280000000001 C 417.96500000000003 312.9510000000001 417.97800000000007 313.3000000000001 417.98900000000003 313.6390000000001 L 418.011 314.1780000000001 C 418.04200000000003 314.8660000000001 418.091 315.5490000000001 418.14000000000004 316.2390000000001 C 418.23300000000006 317.5320000000001 418.331 318.8690000000001 418.31300000000005 320.2800000000001 C 418.30000000000007 321.3880000000001 418.27700000000004 322.7630000000001 417.09600000000006 323.3900000000001 C 416.3810000000001 323.7720000000001 415.43600000000004 323.8450000000001 414.5210000000001 323.8650000000001 L 413.4630000000001 323.8780000000001 C 412.50838779714775 323.9236077052052 411.5526457515854 323.9412819300534 410.5970000000001 323.9310000000001 C 410.0840000000001 323.9330000000001 409.5820000000001 323.9330000000001 409.0890000000001 323.9430000000001 L 406.8650000000001 323.9810000000001 C 406.2819561857326 323.99207275130937 405.69918074867246 324.0144102537596 405.11700000000013 324.0480000000001 L 402.89500000000015 324.1760000000001 C 402.69615102609345 324.1950155629392 402.49669410496716 324.207023003007 402.29700000000014 324.2120000000001 L 402.00100000000015 324.2120000000001 L 401.73700000000014 324.2220000000001 C 401.4660000000001 324.2270000000001 401.15300000000013 324.2220000000001 400.85500000000013 324.0890000000001 C 399.9950000000001 323.7000000000001 399.90200000000016 322.7580000000001 399.83800000000014 322.0750000000001 L 399.81100000000015 321.8860000000001 C 399.760278605929 321.3990422580171 399.72758958493995 320.91037475037547 399.71300000000014 320.4210000000001 C 399.6825042995992 319.3531891053664 399.6134593125792 318.28682763916896 399.50600000000014 317.22400000000005 C 399.43018467455187 316.4278917038413 399.3695070506057 315.63041436054914 399.3240000000001 314.8320000000001 L 399.29500000000013 314.43900000000014 C 399.26755509417285 314.0659927965878 399.25587801988274 313.6919927886115 399.2600000000001 313.31800000000015 C 399.2690000000001 312.77000000000015 399.2780000000001 312.20600000000013 399.4470000000001 311.74400000000014 z" stroke-linecap="round" />
</g>
		<g transform="matrix(1 0 0 1 152.69 61.83)"  >
<path style="stroke: none; stroke-width: 1; stroke-dasharray: none; stroke-linecap: butt; stroke-dashoffset: 0; stroke-linejoin: miter; stroke-miterlimit: 4; fill: rgb(255,255,255); fill-rule: evenodd; opacity: 1;" vector-effect="non-scaling-stroke"  transform=" translate(-408.69, -317.83)" d="M 363.41 295.014 C 360.54400000000004 293.617 360.91700000000003 301.447 363.29400000000004 301.469 C 366.093 301.493 364.82900000000006 296.493 363.67400000000004 295.173 C 363.603 295.084 363.51000000000005 295.065 363.41 295.014 z M 368.206 301.526 C 365.744 300.72200000000004 365.689 307.333 368.321 306.848 C 370.319 306.473 369.906 302.082 368.206 301.526 z M 449.635 324.185 C 448.311 325.353 447.691 332.50600000000003 450.142 332.565 C 452.139 332.613 452.537 326.286 451.259 324.634 C 450.93100000000004 324.212 450.595 324.051 449.635 324.185 z M 454.983 332.459 C 452.735 331.677 452.577 335.267 453.921 335.709 C 455.734 336.308 456.96 333.149 454.983 332.459 z M 449.566 335.641 C 447.33099999999996 335.333 447.12399999999997 340.79900000000004 449.188 340.814 C 450.061 340.82300000000004 450.303 340.23600000000005 450.608 339.17100000000005 C 451.062 337.59000000000003 451.122 335.86000000000007 449.56600000000003 335.6410000000001 z" stroke-linecap="round" />
</g>
		<g transform="matrix(1 0 0 1 150.99 12.18)"  >
<path style="stroke: none; stroke-width: 1; stroke-dasharray: none; stroke-linecap: butt; stroke-dashoffset: 0; stroke-linejoin: miter; stroke-miterlimit: 4; fill: rgb(219,145,113); fill-rule: evenodd; opacity: 1;" vector-effect="non-scaling-stroke"  transform=" translate(-406.99, -268.18)" d="M 392.766 269.022 C 394.71700000000004 270.801 398.358 266.899 400.615 264.137 C 400.675 271.06 402.759 280.544 405.605 286.545 C 406.48900000000003 288.398 407.733 291.685 409.546 291.486 C 411.919 291.223 411.17199999999997 287.134 410.764 285.03999999999996 C 410.204 282.16799999999995 409.45300000000003 280.52599999999995 409.293 277.99499999999995 C 409.74 278.15599999999995 411.923 279.03899999999993 413.072 278.07599999999996 C 414.014 277.282 414.027 276.50399999999996 413.94100000000003 275.12699999999995 C 415.692 275.38999999999993 416.336 275.33199999999994 417.46200000000005 274.126 C 418.81100000000004 272.691 417.8310000000001 269.82 417.8310000000001 269.82 C 418.85800000000006 269.371 420.3420000000001 268.356 421.19000000000005 267.103 C 423.90000000000003 263.146 419.24600000000004 253.532 420.28100000000006 244.86200000000002 C 419.34800000000007 252.72700000000003 406.76500000000004 250.13800000000003 399.12200000000007 248.92400000000004 C 398.56700000000006 252.71700000000004 397.91600000000005 255.30900000000003 396.4920000000001 258.58000000000004 C 395.1570000000001 261.64200000000005 392.8550000000001 264.088 392.00900000000007 266.571 C 391.8020000000001 267.17100000000005 392.05300000000005 268.367 392.7660000000001 269.02200000000005" stroke-linecap="round" />
</g>
		<g transform="matrix(1 0 0 1 151.36 9.3)"  >
<path style="stroke: none; stroke-width: 1; stroke-dasharray: none; stroke-linecap: butt; stroke-dashoffset: 0; stroke-linejoin: miter; stroke-miterlimit: 4; fill: rgb(196,118,91); fill-rule: evenodd; opacity: 1;" vector-effect="non-scaling-stroke"  transform=" translate(-407.36, -265.3)" d="M 393.386 269.383 C 395.874 270.286 400.98 266.316 401.291 261.224 C 400.60699999999997 262.931 397.976 265.852 395.924 266.74399999999997 C 394.62399999999997 267.30499999999995 392.316 267.10299999999995 392.669 265.09799999999996 C 391.15299999999996 267.06399999999996 391.966 268.871 393.38599999999997 269.383 M 407.582 275.638 C 409.199 280.00399999999996 414.978 280.08799999999997 413.94 275.131 C 414.718 275.529 416.088 275.30499999999995 416.639 274.912 C 418.44100000000003 273.647 418.479 271.556 417.83 269.81899999999996 C 420.387 268.91499999999996 422.382 266.58899999999994 422.835 262.91499999999996 C 423.13899999999995 260.306 420.35299999999995 254.73499999999996 420.318 251.72399999999996 C 420.318 251.72399999999996 419.98199999999997 254.37499999999997 420.005 255.83399999999997 C 420.072 260.54299999999995 421.233 266.07 416.82099999999997 266.286 C 416.897 268.201 416.657 269.627 415.65 270.58 C 414.99199999999996 271.2 413.41499999999996 272 412.06399999999996 271.781 C 411.477 273.647 410.04799999999994 276.62 407.58199999999994 275.63800000000003" stroke-linecap="round" />
</g>
		<g transform="matrix(1 0 0 1 148.97 -89.15)"  >
<path style="stroke: none; stroke-width: 1; stroke-dasharray: none; stroke-linecap: butt; stroke-dashoffset: 0; stroke-linejoin: miter; stroke-miterlimit: 4; fill: rgb(124,117,209); fill-rule: evenodd; opacity: 1;" vector-effect="non-scaling-stroke"  transform=" translate(-404.97, -166.85)" d="M 421.421 249.564 C 413.514 250.393 405.145 250.755 397.005 251.346 C 397.218 236.485 396.723 222.249 397.005 207.862 C 397.28 193.992 398.65999999999997 180.361 396.754 166.415 C 395.02500000000003 153.803 391.249 142.531 388.107 131.57799999999997 C 386.58500000000004 126.26599999999998 384.675 120.74699999999997 383.02000000000004 115.04899999999998 C 380.77200000000005 107.31199999999998 377.55300000000005 95.77999999999997 381.749 88.34899999999998 C 384.41 83.64299999999997 391.622 80.54299999999998 398.02200000000005 83.51899999999998 C 403.37000000000006 86.00199999999998 406.86000000000007 91.58499999999998 410.2300000000001 97.24799999999998 C 416.9020000000001 108.46099999999997 420.63200000000006 121.05999999999997 424.47100000000006 134.88099999999997 C 426.33700000000005 141.60399999999998 428.15000000000003 148.63099999999997 429.29900000000004 155.73199999999997 C 431.92900000000003 171.89699999999996 428.29 188.09099999999998 427.01300000000003 203.53799999999995 C 425.65700000000004 219.86999999999995 424.48900000000003 235.60299999999995 421.42100000000005 249.56399999999996 z" stroke-linecap="round" />
</g>
		<g transform="matrix(1 0 0 1 148.76 -89.15)"  >
<path style="stroke: none; stroke-width: 1; stroke-dasharray: none; stroke-linecap: butt; stroke-dashoffset: 0; stroke-linejoin: miter; stroke-miterlimit: 4; fill: rgb(124,117,209); fill-rule: evenodd; opacity: 1;" vector-effect="non-scaling-stroke"  transform=" translate(-404.76, -166.85)" d="M 410.155 165.463 C 410.73699999999997 169.613 398.474 170.80599999999998 399.385 166.565 C 400.629 164.975 403.086 165.59 404.988 165.334 C 406.86899999999997 165.08 409.873 163.455 410.155 165.463 z" stroke-linecap="round" />
</g>
		<g transform="matrix(1 0 0 1 143.34 -159.21)"  >
<path style="stroke: none; stroke-width: 1; stroke-dasharray: none; stroke-linecap: butt; stroke-dashoffset: 0; stroke-linejoin: miter; stroke-miterlimit: 4; fill: rgb(255,255,255); fill-rule: evenodd; opacity: 1;" vector-effect="non-scaling-stroke"  transform=" translate(-399.34, -96.79)" d="M 403.943 103.602 C 404.57399999999996 102.108 402.23699999999997 95.934 400.18399999999997 96.86 C 398.513 97.617 400.70599999999996 103.019 402.419 103.876 C 402.859 104.10000000000001 403.19899999999996 104.09700000000001 403.943 103.602 z M 396.221 98.874 C 398.385 98.631 397.09000000000003 95.589 395.799 95.759 C 394.061 95.987 394.306 99.091 396.221 98.874 z M 399.438 94.079 C 401.411 93.44699999999999 399.407 88.83699999999999 397.687 89.64699999999999 C 396.96500000000003 89.98499999999999 396.992 90.565 397.171 91.573 C 397.425 93.05999999999999 398.062 94.51899999999999 399.438 94.079 z" stroke-linecap="round" />
</g>
</g>
</g>
</svg>